<?xml version="1.0" encoding="UTF-8" standalone="no"?>
<svg width="1600px" height="1000px" viewBox="0 0 1600 1000" version="1.1" xmlns="http://www.w3.org/2000/svg" xmlns:xlink="http://www.w3.org/1999/xlink">
    <!-- Generator: Sketch 3.8.3 (29802) - http://www.bohemiancoding.com/sketch -->
    <title>clouds</title>
    <desc>Created with Sketch.</desc>
    <defs></defs>
    <g id="Page-1" stroke="none" stroke-width="1" fill="none" fill-rule="evenodd" opacity="0.79">
        <g id="clouds" stroke="#FFFBE9" fill="#FFFBE9">
            <path d="M531.165142,291.696667 L497.606665,291.696667 C491.302271,291.696667 486.258756,286.513055 486.258756,280.348758 C486.258756,274.744852 490.321588,270.12163 495.645298,269.281044 C495.505201,268.860751 495.505201,268.300361 495.505201,267.880068 C495.505201,263.817236 498.727446,260.59499 502.790278,260.59499 C504.891743,260.59499 506.713012,261.575674 508.113989,262.97665 C510.075356,257.65294 515.258968,253.870304 521.283167,253.870304 C529.128635,253.870304 535.433029,260.174698 535.433029,268.020166 L535.433029,269.421142 C538.132172,269.931791 540.489446,271.430062 542.168603,273.50059 C543.017527,273.130299 543.959067,272.923583 544.959669,272.923583 C548.882403,272.923583 551.964551,276.005731 551.964551,279.928465 L551.964551,280.628954 C554.626406,281.049246 556.587773,283.430906 556.447676,286.372957 C556.447676,289.455105 553.925918,291.976863 550.84377,291.976863 L532.911271,291.976863 C532.30231,291.976863 531.715225,291.878422 531.165142,291.696667 Z M115,382.479941 C115,403.774782 132.23201,421.14689 153.66695,421.14689 L276.252388,421.14689 C297.54723,421.14689 314.919338,403.91488 314.919338,382.479941 C314.919338,363.286563 300.909573,347.595627 282.556782,344.513479 C282.836977,342.972405 282.977075,341.431331 282.977075,339.750159 C282.977075,326.02059 271.909361,314.952876 258.179792,314.952876 C250.894714,314.952876 244.450223,318.175122 239.827001,323.07854 C232.962216,304.725748 215.309913,291.696667 194.575462,291.696667 C167.956909,291.696667 146.381872,313.271705 146.381872,339.890257 C146.381872,341.431331 146.381872,342.972405 146.662068,344.373381 C128.589471,347.875823 115,363.566759 115,382.479941 Z M304.131819,182.000212 C304.131819,181.299724 304.271917,180.739333 304.271917,180.038845 C304.271917,168.831034 295.16557,159.724687 283.957758,159.724687 C275.271705,159.724687 267.846529,165.188495 265.044577,172.893865 C263.08321,170.792401 260.421354,169.391424 257.339206,169.391424 C251.595203,169.391424 246.831883,174.014647 246.831883,179.898748 C246.831883,180.599236 246.831883,181.299724 247.112078,181.860115 C239.406708,183.120993 233.522607,189.705583 233.522607,197.831246 C233.522607,206.797495 240.807684,214.082573 249.773933,214.082573 L301.329866,214.082573 C310.296115,214.082573 317.581193,206.797495 317.581193,197.831246 C317.300998,189.84568 311.697092,183.401189 304.131819,182.000212 Z M235.343876,166.029081 L235.343876,165.46869 C235.343876,162.246444 232.682021,159.724687 229.599873,159.724687 C227.078115,159.724687 224.97665,161.265761 224.136065,163.507323 C223.575674,162.946933 222.735088,162.52664 221.894502,162.52664 C220.213331,162.52664 218.952452,163.927616 218.952452,165.46869 L218.952452,166.029081 C216.710889,166.449374 215.029718,168.270643 215.029718,170.652303 C215.029718,173.174061 217.131182,175.275525 219.65294,175.275525 L234.363193,175.275525 C236.88495,175.275525 238.986415,173.174061 238.986415,170.652303 C239.26661,168.270643 237.585438,166.449374 235.343876,166.029081 Z M596.935895,233.83634 C596.935895,252.88962 612.346636,268.300361 631.399915,268.300361 L740.53598,268.300361 C759.589259,268.300361 775,252.88962 775,233.83634 C775,216.744428 762.53131,202.734664 746.139885,200.072808 C746.420081,198.671832 746.560178,197.270855 746.560178,195.869879 C746.560178,183.681384 736.613246,173.734451 724.424751,173.734451 C717.980259,173.734451 712.236256,176.536404 708.173424,181.019529 C701.86903,164.628104 686.318191,153 667.825302,153 C644.008703,153 624.815326,172.193377 624.815326,196.009977 C624.815326,197.410953 624.815326,198.671832 625.095521,200.072808 C608.984292,203.014859 596.935895,216.884526 596.935895,233.83634 Z" id="Combined-Shape"></path>
            <path d="M1216.16514,729.696667 L1182.60667,729.696667 C1176.30227,729.696667 1171.25876,724.513055 1171.25876,718.348758 C1171.25876,712.744852 1175.32159,708.12163 1180.6453,707.281044 C1180.5052,706.860751 1180.5052,706.300361 1180.5052,705.880068 C1180.5052,701.817236 1183.72745,698.59499 1187.79028,698.59499 C1189.89174,698.59499 1191.71301,699.575674 1193.11399,700.97665 C1195.07536,695.65294 1200.25897,691.870304 1206.28317,691.870304 C1214.12864,691.870304 1220.43303,698.174698 1220.43303,706.020166 L1220.43303,707.421142 C1223.13217,707.931791 1225.48945,709.430062 1227.1686,711.50059 C1228.01753,711.130299 1228.95907,710.923583 1229.95967,710.923583 C1233.8824,710.923583 1236.96455,714.005731 1236.96455,717.928465 L1236.96455,718.628954 C1239.62641,719.049246 1241.58777,721.430906 1241.44768,724.372957 C1241.44768,727.455105 1238.92592,729.976863 1235.84377,729.976863 L1217.91127,729.976863 C1217.30231,729.976863 1216.71522,729.878422 1216.16514,729.696667 Z M800,820.479941 C800,841.774782 817.23201,859.14689 838.66695,859.14689 L961.252388,859.14689 C982.54723,859.14689 999.919338,841.91488 999.919338,820.479941 C999.919338,801.286563 985.909573,785.595627 967.556782,782.513479 C967.836977,780.972405 967.977075,779.431331 967.977075,777.750159 C967.977075,764.02059 956.909361,752.952876 943.179792,752.952876 C935.894714,752.952876 929.450223,756.175122 924.827001,761.07854 C917.962216,742.725748 900.309913,729.696667 879.575462,729.696667 C852.956909,729.696667 831.381872,751.271705 831.381872,777.890257 C831.381872,779.431331 831.381872,780.972405 831.662068,782.373381 C813.589471,785.875823 800,801.566759 800,820.479941 Z M989.131819,620.000212 C989.131819,619.299724 989.271917,618.739333 989.271917,618.038845 C989.271917,606.831034 980.16557,597.724687 968.957758,597.724687 C960.271705,597.724687 952.846529,603.188495 950.044577,610.893865 C948.08321,608.792401 945.421354,607.391424 942.339206,607.391424 C936.595203,607.391424 931.831883,612.014647 931.831883,617.898748 C931.831883,618.599236 931.831883,619.299724 932.112078,619.860115 C924.406708,621.120993 918.522607,627.705583 918.522607,635.831246 C918.522607,644.797495 925.807684,652.082573 934.773933,652.082573 L986.329866,652.082573 C995.296115,652.082573 1002.58119,644.797495 1002.58119,635.831246 C1002.301,627.84568 996.697092,621.401189 989.131819,620.000212 Z M920.343876,604.029081 L920.343876,603.46869 C920.343876,600.246444 917.682021,597.724687 914.599873,597.724687 C912.078115,597.724687 909.97665,599.265761 909.136065,601.507323 C908.575674,600.946933 907.735088,600.52664 906.894502,600.52664 C905.213331,600.52664 903.952452,601.927616 903.952452,603.46869 L903.952452,604.029081 C901.710889,604.449374 900.029718,606.270643 900.029718,608.652303 C900.029718,611.174061 902.131182,613.275525 904.65294,613.275525 L919.363193,613.275525 C921.88495,613.275525 923.986415,611.174061 923.986415,608.652303 C924.26661,606.270643 922.585438,604.449374 920.343876,604.029081 Z M1281.93589,671.83634 C1281.93589,690.88962 1297.34664,706.300361 1316.39992,706.300361 L1425.53598,706.300361 C1444.58926,706.300361 1460,690.88962 1460,671.83634 C1460,654.744428 1447.53131,640.734664 1431.13989,638.072808 C1431.42008,636.671832 1431.56018,635.270855 1431.56018,633.869879 C1431.56018,621.681384 1421.61325,611.734451 1409.42475,611.734451 C1402.98026,611.734451 1397.23626,614.536404 1393.17342,619.019529 C1386.86903,602.628104 1371.31819,591 1352.8253,591 C1329.0087,591 1309.81533,610.193377 1309.81533,634.009977 C1309.81533,635.410953 1309.81533,636.671832 1310.09552,638.072808 C1293.98429,641.014859 1281.93589,654.884526 1281.93589,671.83634 Z" id="Combined-Shape"></path>
        </g>
    </g>
</svg>