<?xml version="1.0" encoding="utf-8"?>
<!-- Generator: Adobe Illustrator 18.1.1, SVG Export Plug-In . SVG Version: 6.00 Build 0)  -->
<svg version="1.1" id="Layer_1" xmlns="http://www.w3.org/2000/svg" xmlns:xlink="http://www.w3.org/1999/xlink" x="0px" y="0px"
	 viewBox="0 0 600 300" enable-background="new 0 0 600 300" xml:space="preserve">
<path id="Cloud_4_" opacity="0.79" fill="#FFFBE9" stroke="#FFFBE9" stroke-miterlimit="10" enable-background="new    " d="
	M47.2,184.5c0,15.2,12.3,27.6,27.6,27.6h87.5c15.2,0,27.6-12.3,27.6-27.6c0-13.7-10-24.9-23.1-27.1c0.2-1.1,0.3-2.2,0.3-3.4
	c0-9.8-7.9-17.7-17.7-17.7c-5.2,0-9.8,2.3-13.1,5.8c-4.9-13.1-17.5-22.4-32.3-22.4c-19,0-34.4,15.4-34.4,34.4c0,1.1,0,2.2,0.2,3.2
	C56.9,159.8,47.2,171,47.2,184.5z"/>
<path id="Cloud" fill="#FFFBE9" d="M182.2,41.4c0-0.5,0.1-0.9,0.1-1.4c0-8-6.5-14.5-14.5-14.5c-6.2,0-11.5,3.9-13.5,9.4
	c-1.4-1.5-3.3-2.5-5.5-2.5c-4.1,0-7.5,3.3-7.5,7.5c0,0.5,0,1,0.2,1.4c-5.5,0.9-9.7,5.6-9.7,11.4c0,6.4,5.2,11.6,11.6,11.6h36.8
	c6.4,0,11.6-5.2,11.6-11.6C191.6,47,187.6,42.4,182.2,41.4z"/>
<path id="Cloud_1_" fill="#FFFBE9" d="M133.1,30c0-0.1,0-0.3,0-0.4c0-2.3-1.9-4.1-4.1-4.1c-1.8,0-3.3,1.1-3.9,2.7
	c-0.4-0.4-1-0.7-1.6-0.7c-1.2,0-2.1,1-2.1,2.1c0,0.2,0,0.3,0,0.4c-1.6,0.3-2.8,1.6-2.8,3.3c0,1.8,1.5,3.3,3.3,3.3h10.5
	c1.8,0,3.3-1.5,3.3-3.3C135.9,31.6,134.7,30.3,133.1,30z"/>
<path id="Cloud_5_" opacity="0.81" fill="#FFFBE9" stroke="#FFFBE9" stroke-miterlimit="10" enable-background="new    " d="
	M391.2,78.4c0,13.6,11,24.6,24.6,24.6h77.9c13.6,0,24.6-11,24.6-24.6c0-12.2-8.9-22.2-20.6-24.1c0.2-1,0.3-2,0.3-3
	c0-8.7-7.1-15.8-15.8-15.8c-4.6,0-8.7,2-11.6,5.2C466.1,29,455,20.7,441.8,20.7c-17,0-30.7,13.7-30.7,30.7c0,1,0,1.9,0.2,2.9
	C399.8,56.4,391.2,66.3,391.2,78.4z"/>
<path id="Cloud_2_" fill="#FFFBE9" d="M347.3,103.8c0-0.3,0-0.6,0-1c0-5.6-4.5-10.1-10.1-10.1c-4.3,0-8,2.7-9.4,6.5
	c-1-1-2.3-1.7-3.8-1.7c-2.9,0-5.2,2.3-5.2,5.2c0,0.3,0,0.7,0.1,1c-3.8,0.6-6.7,3.9-6.7,7.9c0,4.4,3.6,8.1,8.1,8.1h25.6
	c4.4,0,8.1-3.6,8.1-8.1C353.8,107.8,351,104.5,347.3,103.8z"/>
<path id="Cloud_3_" fill="#FFFBE9" d="M359.1,111.8c0-0.2,0-0.3,0-0.5c0-2.8-2.2-5-5-5c-2.2,0-4,1.4-4.7,3.3
	c-0.5-0.5-1.1-0.8-1.9-0.8c-1.4,0-2.6,1.1-2.6,2.6c0,0.2,0,0.3,0,0.5c-1.9,0.3-3.4,2-3.4,4c0,2.2,1.8,4,4,4h12.8c2.2,0,4-1.8,4-4
	C362.4,113.8,361,112.1,359.1,111.8z"/>
</svg>
