<?xml version="1.0" encoding="UTF-8" standalone="no"?>
<svg width="24px" height="124px" viewBox="0 0 24 124" version="1.1" xmlns="http://www.w3.org/2000/svg" xmlns:xlink="http://www.w3.org/1999/xlink">
    <!-- Generator: Sketch 3.8.3 (29802) - http://www.bohemiancoding.com/sketch -->
    <title>documentation</title>
    <desc>Created with Sketch.</desc>
    <defs></defs>
    <g id="Page-1" stroke="none" stroke-width="1" fill="none" fill-rule="evenodd">
        <g id="documentation" fill="#DA2327">
            <path d="M18.0816993,16.5522876 L18.0816993,3 L7.65686275,3 C5.93676471,3 4.52941176,4.40735294 4.52941176,6.12745098 L4.52941176,17.5947712 C4.52941176,19.3148688 5.93676471,20.7222222 7.65686275,20.7222222 L18.0816993,20.7222222 L18.0816993,18.6372549 L7.65686275,18.6372549 C7.08349673,18.6372549 6.61437908,18.1681373 6.61437908,17.5947712 C6.61437908,17.0214052 7.08349673,16.5522876 7.65686275,16.5522876 L18.0816993,16.5522876 Z" id="Page-1"></path>
            <path d="M18.0816993,116.552288 L18.0816993,103 L7.65686275,103 C5.93676471,103 4.52941176,104.407353 4.52941176,106.127451 L4.52941176,117.594771 C4.52941176,119.314869 5.93676471,120.722222 7.65686275,120.722222 L18.0816993,120.722222 L18.0816993,118.637255 L7.65686275,118.637255 C7.08349673,118.637255 6.61437908,118.168137 6.61437908,117.594771 C6.61437908,117.021405 7.08349673,116.552288 7.65686275,116.552288 L18.0816993,116.552288 Z" id="Page-1"></path>
        </g>
    </g>
</svg>