<?xml version="1.0" encoding="UTF-8" standalone="no"?>
<svg width="24px" height="124px" viewBox="0 0 24 124" version="1.1" xmlns="http://www.w3.org/2000/svg" xmlns:xlink="http://www.w3.org/1999/xlink">
    <!-- Generator: Sketch 3.8.3 (29802) - http://www.bohemiancoding.com/sketch -->
    <title>facebook</title>
    <desc>Created with Sketch.</desc>
    <defs></defs>
    <g id="Page-1" stroke="none" stroke-width="1" fill="none" fill-rule="evenodd">
        <g id="facebook" fill="#DA2327">
            <path d="M12.6131461,20.9858847 L3.99097618,20.9858847 C3.44492818,20.9858847 3,20.540956 3,19.9949083 L3,3.99097753 C3,3.44493034 3.44492818,3 3.99097618,3 L20.0016472,3 C20.5477011,3 20.9926247,3.44493034 20.9926247,3.99097753 L20.9926247,20.0016499 C20.9926247,20.5476978 20.5477011,20.9926264 20.0016472,20.9926264 L20.0016472,20.9858847 L15.4175393,20.9858847 L15.4175393,20.9926264 L12.6131461,20.9926264 L12.6131461,20.9858847 Z M12.6131461,20.9858847 L15.4175393,20.9858847 L15.4175393,14.0220876 L17.7567843,14.0220876 L18.1073326,11.3053281 L15.4175393,11.3053281 L15.4175393,9.57280449 C15.4175393,8.78406742 15.6332629,8.25150337 16.7658067,8.25150337 L18.2017146,8.25150337 L18.2017146,5.82461798 C17.9522831,5.79091011 17.0961371,5.71675955 16.1051596,5.71675955 C14.0288225,5.71675955 12.6131461,6.98412809 12.6131461,9.30314831 L12.6131461,11.3053281 L10.2671596,11.3053281 L10.2671596,14.0220876 L12.6131461,14.0220876 L12.6131461,20.9858847 Z" id="Combined-Shape"></path>
            <path d="M12.6131461,120.985885 L3.99097618,120.985885 C3.44492818,120.985885 3,120.540956 3,119.994908 L3,103.990978 C3,103.44493 3.44492818,103 3.99097618,103 L20.0016472,103 C20.5477011,103 20.9926247,103.44493 20.9926247,103.990978 L20.9926247,120.00165 C20.9926247,120.547698 20.5477011,120.992626 20.0016472,120.992626 L20.0016472,120.985885 L15.4175393,120.985885 L15.4175393,120.992626 L12.6131461,120.992626 L12.6131461,120.985885 Z M12.6131461,120.985885 L15.4175393,120.985885 L15.4175393,114.022088 L17.7567843,114.022088 L18.1073326,111.305328 L15.4175393,111.305328 L15.4175393,109.572804 C15.4175393,108.784067 15.6332629,108.251503 16.7658067,108.251503 L18.2017146,108.251503 L18.2017146,105.824618 C17.9522831,105.79091 17.0961371,105.71676 16.1051596,105.71676 C14.0288225,105.71676 12.6131461,106.984128 12.6131461,109.303148 L12.6131461,111.305328 L10.2671596,111.305328 L10.2671596,114.022088 L12.6131461,114.022088 L12.6131461,120.985885 Z" id="Combined-Shape"></path>
        </g>
    </g>
</svg>