<?xml version="1.0" encoding="UTF-8" standalone="no"?>
<svg width="24px" height="124px" viewBox="0 0 24 124" version="1.1" xmlns="http://www.w3.org/2000/svg" xmlns:xlink="http://www.w3.org/1999/xlink">
    <!-- Generator: Sketch 3.8.3 (29802) - http://www.bohemiancoding.com/sketch -->
    <title>github</title>
    <desc>Created with Sketch.</desc>
    <defs></defs>
    <g id="Page-1" stroke="none" stroke-width="1" fill="none" fill-rule="evenodd">
        <g id="github" fill="#DA2327">
            <path d="M12.0090883,1 C5.92128121,1 1,5.92128121 1,12.0090883 C1,16.8756887 4.15326537,20.9949833 8.52773756,22.4531407 C9.07454658,22.5625025 9.27504322,22.2161901 9.27504322,21.9245586 C9.27504322,21.6693811 9.25681626,20.7944867 9.25681626,19.8831383 C6.19468572,20.5393091 5.55674186,18.5707966 5.55674186,18.5707966 C5.06461374,17.2949089 4.33553504,16.9668235 4.33553504,16.9668235 C3.33305183,16.2924257 4.40844291,16.2924257 4.40844291,16.2924257 C5.52028793,16.3653336 6.10355089,17.4224977 6.10355089,17.4224977 C7.08780713,19.0993787 8.6735533,18.6254775 9.31149716,18.333846 C9.402632,17.6229943 9.69426348,17.1308662 10.0041219,16.8574617 C7.56170828,16.6022841 4.99170587,15.6544818 4.99170587,11.4258254 C4.99170587,10.2228455 5.42915309,9.23858929 6.12177785,8.47305666 C6.01241605,8.19965214 5.62964973,7.06958016 6.23113966,5.55674186 C6.23113966,5.55674186 7.160715,5.26511038 9.25681626,6.68681385 C10.1317107,6.44986327 11.079513,6.3222745 12.0090883,6.3222745 C12.9386637,6.3222745 13.886466,6.44986327 14.7613604,6.68681385 C16.8574617,5.26511038 17.787037,5.55674186 17.787037,5.55674186 C18.388527,7.06958016 18.0057606,8.19965214 17.8963988,8.47305666 C18.6072506,9.23858929 19.0264708,10.2228455 19.0264708,11.4258254 C19.0264708,15.6544818 16.4564684,16.5840572 13.9958278,16.8574617 C14.3968211,17.2037741 14.7431335,17.8599449 14.7431335,18.898882 C14.7431335,20.3752664 14.7249065,21.5600193 14.7249065,21.9245586 C14.7249065,22.2161901 14.9254031,22.5625025 15.4722122,22.4531407 C19.8466843,20.9949833 22.9999497,16.8756887 22.9999497,12.0090883 C23.0181767,5.92128121 18.0786685,1 12.0090883,1 Z M5.17397555,16.8027808 C5.15574858,16.8574617 5.06461374,16.8756887 4.99170587,16.8392347 C4.918798,16.8027808 4.8641171,16.7298729 4.90057104,16.675192 C4.918798,16.6205111 5.00993284,16.6022841 5.08284071,16.6387381 C5.15574858,16.675192 5.19220251,16.7480999 5.17397555,16.8027808 Z M5.61142277,17.2949089 C5.55674186,17.3495898 5.44738006,17.3131359 5.39269916,17.240228 C5.31979129,17.1673201 5.30156432,17.0579583 5.35624522,17.0032774 C5.41092612,16.9485965 5.50206096,16.9850505 5.57496883,17.0579583 C5.6478767,17.1490932 5.66610367,17.258455 5.61142277,17.2949089 Z M6.04886998,17.9328528 C5.97596212,17.9875337 5.86660031,17.9328528 5.81191941,17.8417179 C5.73901154,17.7505831 5.73901154,17.6229943 5.81191941,17.5865404 C5.88482728,17.5318595 5.99418908,17.5865404 6.04886998,17.6776752 C6.12177785,17.7688101 6.12177785,17.8781719 6.04886998,17.9328528 Z M6.65035991,18.5525697 C6.59567901,18.6254775 6.46809024,18.6072506 6.35872843,18.5161157 C6.26759359,18.4249809 6.23113966,18.2973921 6.30404753,18.2427112 C6.35872843,18.1698033 6.4863172,18.1880303 6.59567901,18.2791651 C6.68681385,18.352073 6.70504081,18.4796618 6.65035991,18.5525697 Z M7.47057345,18.898882 C7.45234648,18.9900169 7.32475771,19.0264708 7.19716893,18.9900169 C7.06958016,18.9535629 6.99667229,18.8442011 7.01489926,18.7712933 C7.03312623,18.6801584 7.160715,18.6437045 7.28830377,18.6801584 C7.41589254,18.7166124 7.48880041,18.8077472 7.47057345,18.898882 Z M8.36369485,18.9717899 C8.36369485,19.0629247 8.25433305,19.1358326 8.12674427,19.1358326 C7.9991555,19.1358326 7.8897937,19.0629247 7.8897937,18.9717899 C7.8897937,18.8806551 7.9991555,18.8077472 8.12674427,18.8077472 C8.25433305,18.8077472 8.36369485,18.8806551 8.36369485,18.9717899 Z M9.20213535,18.8259742 C9.22036232,18.917109 9.12922748,19.0082438 9.00163871,19.0264708 C8.87404994,19.0446978 8.76468814,18.9900169 8.74646117,18.898882 C8.7282342,18.8077472 8.81936904,18.7166124 8.94695781,18.6983854 C9.07454658,18.6801584 9.18390839,18.7348393 9.20213535,18.8259742 Z" id="Combined-Shape"></path>
            <path d="M12.0090883,101 C5.92128121,101 1,105.921281 1,112.009088 C1,116.875689 4.15326537,120.994983 8.52773756,122.453141 C9.07454658,122.562502 9.27504322,122.21619 9.27504322,121.924559 C9.27504322,121.669381 9.25681626,120.794487 9.25681626,119.883138 C6.19468572,120.539309 5.55674186,118.570797 5.55674186,118.570797 C5.06461374,117.294909 4.33553504,116.966823 4.33553504,116.966823 C3.33305183,116.292426 4.40844291,116.292426 4.40844291,116.292426 C5.52028793,116.365334 6.10355089,117.422498 6.10355089,117.422498 C7.08780713,119.099379 8.6735533,118.625478 9.31149716,118.333846 C9.402632,117.622994 9.69426348,117.130866 10.0041219,116.857462 C7.56170828,116.602284 4.99170587,115.654482 4.99170587,111.425825 C4.99170587,110.222846 5.42915309,109.238589 6.12177785,108.473057 C6.01241605,108.199652 5.62964973,107.06958 6.23113966,105.556742 C6.23113966,105.556742 7.160715,105.26511 9.25681626,106.686814 C10.1317107,106.449863 11.079513,106.322274 12.0090883,106.322274 C12.9386637,106.322274 13.886466,106.449863 14.7613604,106.686814 C16.8574617,105.26511 17.787037,105.556742 17.787037,105.556742 C18.388527,107.06958 18.0057606,108.199652 17.8963988,108.473057 C18.6072506,109.238589 19.0264708,110.222846 19.0264708,111.425825 C19.0264708,115.654482 16.4564684,116.584057 13.9958278,116.857462 C14.3968211,117.203774 14.7431335,117.859945 14.7431335,118.898882 C14.7431335,120.375266 14.7249065,121.560019 14.7249065,121.924559 C14.7249065,122.21619 14.9254031,122.562502 15.4722122,122.453141 C19.8466843,120.994983 22.9999497,116.875689 22.9999497,112.009088 C23.0181767,105.921281 18.0786685,101 12.0090883,101 Z M5.17397555,116.802781 C5.15574858,116.857462 5.06461374,116.875689 4.99170587,116.839235 C4.918798,116.802781 4.8641171,116.729873 4.90057104,116.675192 C4.918798,116.620511 5.00993284,116.602284 5.08284071,116.638738 C5.15574858,116.675192 5.19220251,116.7481 5.17397555,116.802781 Z M5.61142277,117.294909 C5.55674186,117.34959 5.44738006,117.313136 5.39269916,117.240228 C5.31979129,117.16732 5.30156432,117.057958 5.35624522,117.003277 C5.41092612,116.948597 5.50206096,116.98505 5.57496883,117.057958 C5.6478767,117.149093 5.66610367,117.258455 5.61142277,117.294909 Z M6.04886998,117.932853 C5.97596212,117.987534 5.86660031,117.932853 5.81191941,117.841718 C5.73901154,117.750583 5.73901154,117.622994 5.81191941,117.58654 C5.88482728,117.531859 5.99418908,117.58654 6.04886998,117.677675 C6.12177785,117.76881 6.12177785,117.878172 6.04886998,117.932853 Z M6.65035991,118.55257 C6.59567901,118.625478 6.46809024,118.607251 6.35872843,118.516116 C6.26759359,118.424981 6.23113966,118.297392 6.30404753,118.242711 C6.35872843,118.169803 6.4863172,118.18803 6.59567901,118.279165 C6.68681385,118.352073 6.70504081,118.479662 6.65035991,118.55257 Z M7.47057345,118.898882 C7.45234648,118.990017 7.32475771,119.026471 7.19716893,118.990017 C7.06958016,118.953563 6.99667229,118.844201 7.01489926,118.771293 C7.03312623,118.680158 7.160715,118.643704 7.28830377,118.680158 C7.41589254,118.716612 7.48880041,118.807747 7.47057345,118.898882 Z M8.36369485,118.97179 C8.36369485,119.062925 8.25433305,119.135833 8.12674427,119.135833 C7.9991555,119.135833 7.8897937,119.062925 7.8897937,118.97179 C7.8897937,118.880655 7.9991555,118.807747 8.12674427,118.807747 C8.25433305,118.807747 8.36369485,118.880655 8.36369485,118.97179 Z M9.20213535,118.825974 C9.22036232,118.917109 9.12922748,119.008244 9.00163871,119.026471 C8.87404994,119.044698 8.76468814,118.990017 8.74646117,118.898882 C8.7282342,118.807747 8.81936904,118.716612 8.94695781,118.698385 C9.07454658,118.680158 9.18390839,118.734839 9.20213535,118.825974 Z" id="Combined-Shape"></path>
        </g>
    </g>
</svg>