<?xml version="1.0" encoding="utf-8"?>
<!-- Generator: Adobe Illustrator 18.1.1, SVG Export Plug-In . SVG Version: 6.00 Build 0)  -->
<svg version="1.1" id="Layer_1" xmlns="http://www.w3.org/2000/svg" xmlns:xlink="http://www.w3.org/1999/xlink" x="0px" y="0px"
	 viewBox="-22 19.5 202.5 216.5" enable-background="new -22 19.5 202.5 216.5" xml:space="preserve">
<g display="none">
	<g display="inline">
		<path fill="#FFFBE9" d="M249.9,278.5h-53.5c-10.1,0-18.4-8.3-18.4-18.4V39c0-10.1,8.3-18.4,18.4-18.4h53.5"/>
		<path fill="#221F1F" d="M249.9,285.6h-53.5c-14.1,0-25.5-11.4-25.5-25.5V39c0-14.1,11.4-25.5,25.5-25.5h53.5
			c3.7,0,7.1,3.1,7.1,7.1s-3.1,7.1-7.1,7.1h-53.5c-6.5,0-11.7,5.2-11.7,11.7v221c0,6.5,5.2,11.7,11.7,11.7h53.5
			c3.7,0,7.1,3.1,7.1,7.1C257,282.5,253.9,285.6,249.9,285.6z"/>
	</g>
	<g display="inline">
		<line fill="none" x1="244.4" y1="279.7" x2="244.4" y2="21.5"/>
		<path fill="#221F1F" d="M245.9,285.9c-3.7,0-7.7-3.1-7.7-7.1V20.6c0-3.7,4-7.1,7.7-7.1s7.7,3.1,7.7,7.1v258.2
			C253.6,282.8,249.6,285.9,245.9,285.9z"/>
	</g>
	<g display="inline">
		<path fill="#221F1F" d="M264,27.7H241c-3.7,0-7.1-3.1-7.1-7.1s3.1-7.1,7.1-7.1H264c3.7,0,7.1,3.1,7.1,7.1S267.7,27.7,264,27.7z"/>
		<path fill="#221F1F" d="M377.5,27.7h-37.8c-3.7,0-7.1-3.1-7.1-7.1s3.1-7.1,7.1-7.1h37.8c3.7,0,7.1,3.1,7.1,7.1
			S381.1,27.7,377.5,27.7z M320.6,27.7h-37.8c-3.7,0-7.1-3.1-7.1-7.1s3.1-7.1,7.1-7.1h37.8c3.7,0,7.1,3.1,7.1,7.1
			S324.6,27.7,320.6,27.7z"/>
		<path fill="#221F1F" d="M419.3,50.7c-3.7,0-7.1-3.1-7.1-7.1v-16h-16.3c-3.7,0-7.1-3.1-7.1-7.1s3.1-7.1,7.1-7.1H419
			c3.7,0,7.1,3.1,7.1,7.1v23.1C426.3,47.6,423.3,50.7,419.3,50.7z"/>
		<path fill="#221F1F" d="M419.3,241.3c-3.7,0-7.1-3.1-7.1-7.1v-42.1c0-3.7,3.1-7.1,7.1-7.1c3.7,0,7.1,3.1,7.1,7.1v42.4
			C426.3,238.2,423.3,241.3,419.3,241.3z M419.3,177.7c-3.7,0-7.1-3.1-7.1-7.1v-42.1c0-3.7,3.1-7.1,7.1-7.1c3.7,0,7.1,3.1,7.1,7.1
			v42.4C426.3,174.6,423.3,177.7,419.3,177.7z M419.3,114.3c-3.7,0-7.1-3.1-7.1-7.1V64.9c0-3.7,3.1-7.1,7.1-7.1
			c3.7,0,7.1,3.1,7.1,7.1v42.4C426.3,111.3,423.3,114.3,419.3,114.3z"/>
		<path fill="#221F1F" d="M419.3,285.6h-23.1c-3.7,0-7.1-3.1-7.1-7.1c0-3.7,3.1-7.1,7.1-7.1h16.3v-16.3c0-3.7,3.1-7.1,7.1-7.1
			c3.7,0,7.1,3.1,7.1,7.1v23.1C426.3,282.5,423.3,285.6,419.3,285.6z"/>
		<path fill="#221F1F" d="M377.5,285.6h-37.8c-3.7,0-7.1-3.1-7.1-7.1c0-3.7,3.1-7.1,7.1-7.1h37.8c3.7,0,7.1,3.1,7.1,7.1
			C384.2,282.5,381.1,285.6,377.5,285.6z M320.6,285.6h-37.8c-3.7,0-7.1-3.1-7.1-7.1c0-3.7,3.1-7.1,7.1-7.1h37.8
			c3.7,0,7.1,3.1,7.1,7.1S324.6,285.6,320.6,285.6z"/>
		<path fill="#221F1F" d="M264,285.6H241c-3.7,0-7.1-3.1-7.1-7.1c0-3.7,3.1-7.1,7.1-7.1H264c3.7,0,7.1,3.1,7.1,7.1
			C270.8,282.5,267.7,285.6,264,285.6z"/>
	</g>
	<path display="inline" fill="#221F1F" d="M343,159.8h-92.2c-3.7,0-7.1-2.5-7.1-6.1c0-3.7,3.1-6.1,7.1-6.1h75.6l-8.9-9.2
		c-2.8-2.8-2.8-7.4,0-9.8c2.8-2.8,7.1-2.8,9.8,0l20.9,20.6c1.8,1.8,2.5,4.6,1.5,7.1C348.3,158.6,345.8,159.8,343,159.8z"/>
	<path display="inline" fill="#221F1F" d="M322.4,181.4c-1.8,0-3.7-0.6-4.9-2.2c-2.8-2.8-2.8-7.4,0-10.1l8.9-9.2h-75.6
		c-3.7,0-7.1-2.5-7.1-6.1c0-3.7,3.1-6.1,7.1-6.1H343c2.8,0,5.2,1.2,6.5,4c0.9,2.5,0.6,5.2-1.5,7.4l-20.6,20.6
		C325.8,180.7,324,181.4,322.4,181.4z"/>
</g>
<g display="none">
	
		<polygon display="inline" fill="#FFFBE9" stroke="#231F20" stroke-width="6" stroke-linecap="round" stroke-linejoin="round" stroke-miterlimit="10" points="
		278.5,90.1 206.6,90.1 170.6,152.2 206.6,214.2 278.5,214.2 314.1,152.2 	"/>
	
		<polygon display="inline" fill="#FFFBE9" stroke="#231F20" stroke-width="6" stroke-linecap="round" stroke-linejoin="round" stroke-miterlimit="10" points="
		387.3,152.2 423.3,90.1 387.3,28 315.4,28 279.7,90.1 315.4,152.2 	"/>
	
		<polygon display="inline" fill="#FFFBE9" stroke="#231F20" stroke-width="6" stroke-linecap="round" stroke-linejoin="round" stroke-miterlimit="10" points="
		315.4,152.2 279.7,214.2 315.4,276.6 387.3,276.6 423.3,214.2 387.3,152.2 	"/>
</g>
<path fill="#FFFBE9" stroke="#DA2327" stroke-width="5" stroke-linejoin="round" stroke-miterlimit="10" d="M80.2,97.1
	c-1.8,0.4-3.7-0.1-5-1.4c-1.5-1.5-1.8-3.6-1.3-5.4C76.5,75.9,96,56.9,96,56.9l0,0c5-4.7,12.6-4.4,17.5,0.4
	c4.8,4.8,4.9,12.4,0.4,17.5l0,0c0,0,0,0-0.2,0.2c-0.1,0.1-0.2,0.2-0.3,0.3c-0.1,0.1-0.3,0.2-0.4,0.4C108.9,79.7,92.6,95.2,80.2,97.1
	z M63.5,57.7c-0.1-0.1-0.2-0.3-0.4-0.4c-0.1-0.1-0.2-0.2-0.3-0.3c-0.2-0.1-0.2-0.2-0.2-0.2l0,0c-5.1-4.5-12.7-4.4-17.5,0.4
	c-4.9,4.9-5.1,12.5-0.4,17.5l0,0c0,0,19.1,19.5,33.3,22.1c1.8,0.6,4,0.2,5.4-1.3c1.4-1.4,1.9-3.3,1.4-5C83,78.2,67.5,61.9,63.5,57.7
	z"/>
<g>
	<path fill="#FFFBE9" stroke="#DA2327" stroke-width="5" stroke-miterlimit="10" d="M33.2,164.1c0,25.4,20.6,36.8,46,36.8
		s46-11.4,46-36.8c0-21.6-14.9-33.1-34.9-36l-11.1-12l-11.1,12C48.1,131,33.2,142.5,33.2,164.1z"/>
</g>
<g>
	<path fill="#DA2327" d="M58.7,143.2h6.8v2.3h-4.1v2H65v2.3h-3.5v3.8h-2.8V143.2z"/>
	<path fill="#DA2327" d="M66.8,148.4c0-3.5,2-5.4,4.9-5.4c2.9,0,4.9,2,4.9,5.4c0,3.5-2,5.5-4.9,5.5
		C68.7,153.9,66.8,151.8,66.8,148.4z M73.7,148.4c0-1.9-0.8-3-2-3s-2,1.1-2,3c0,1.9,0.8,3.1,2,3.1S73.7,150.3,73.7,148.4z"/>
	<path fill="#DA2327" d="M84,153.7l-1.8-3.5h-1.1v3.5h-2.8v-10.5h4c2.3,0,4.2,0.8,4.2,3.4c0,1.5-0.7,2.5-1.7,3l2.3,4.1H84z
		 M81.2,148h1c1.1,0,1.7-0.5,1.7-1.4c0-0.9-0.6-1.2-1.7-1.2h-1V148z"/>
	<path fill="#DA2327" d="M88.6,143.2h2.8v3.9h0.1l2.6-3.9h3l-3.1,4.3l3.7,6.2h-3l-2.3-4l-1,1.4v2.6h-2.8V143.2z"/>
	<path fill="#DA2327" d="M67.3,163.7c0-3.5,2-5.4,4.9-5.4c2.9,0,4.9,2,4.9,5.4c0,3.5-2,5.5-4.9,5.5
		C69.2,169.2,67.3,167.2,67.3,163.7z M74.2,163.7c0-1.9-0.8-3-2-3c-1.3,0-2,1.1-2,3c0,1.9,0.8,3.1,2,3.1
		C73.4,166.8,74.2,165.6,74.2,163.7z"/>
	<path fill="#DA2327" d="M78.9,158.5h2.8l2.3,4.7l1,2.4h0.1c-0.1-1.1-0.4-2.7-0.4-4v-3h2.6V169h-2.8l-2.3-4.7l-1-2.3h-0.1
		c0.1,1.2,0.4,2.7,0.4,4v3h-2.6V158.5z"/>
	<path fill="#DA2327" d="M57.1,173.7c1.5,0,2.6,0.6,3.4,1.4l-1.5,1.7c-0.5-0.5-1-0.7-1.8-0.7c-1.4,0-2.5,1.1-2.5,3
		c0,2,0.9,3.1,2.7,3.1c0.3,0,0.6-0.1,0.8-0.2v-1.5h-1.5v-2.3h4v5c-0.8,0.6-2.1,1.3-3.6,1.3c-2.9,0-5.2-1.8-5.2-5.4
		C51.8,175.7,54.2,173.7,57.1,173.7z"/>
	<path fill="#DA2327" d="M62.7,173.8h2.8v10.5h-2.8V173.8z"/>
	<path fill="#DA2327" d="M69.8,176.2H67v-2.3h8.3v2.3h-2.8v8.2h-2.8V176.2z"/>
	<path fill="#DA2327" d="M76.9,173.8h2.8v3.9h3.1v-3.9h2.8v10.5h-2.8v-4.2h-3.1v4.2h-2.8V173.8z"/>
	<path fill="#DA2327" d="M87.8,173.8h2.8v5.7c0,1.9,0.5,2.6,1.6,2.6s1.6-0.7,1.6-2.6v-5.7h2.7v5.4c0,3.6-1.4,5.3-4.3,5.3
		s-4.4-1.7-4.4-5.3V173.8z"/>
	<path fill="#DA2327" d="M98.7,173.8h3.8c2.2,0,4,0.5,4,2.6c0,0.9-0.5,1.9-1.7,2.3v0.1c1.5,0.3,2.2,1.1,2.2,2.5
		c0,2.2-1.9,3.1-4.1,3.1h-4.1V173.8z M102.4,178c0.9,0,1.3-0.5,1.3-1.1c0-0.6-0.4-0.9-1.3-0.9h-0.9v2H102.4z M102.6,182.2
		c1.1,0,1.6-0.4,1.6-1.2c0-0.8-0.5-1.1-1.6-1.1h-1.1v2.3H102.6z"/>
</g>
</svg>
