<?xml version="1.0" encoding="utf-8"?>
<!-- Generator: Adobe Illustrator 18.1.1, SVG Export Plug-In . SVG Version: 6.00 Build 0)  -->
<svg version="1.1" xmlns="http://www.w3.org/2000/svg" xmlns:xlink="http://www.w3.org/1999/xlink" x="0px" y="0px"
	 viewBox="0 0 141.3 100" enable-background="new 0 0 141.3 100" xml:space="preserve">
<g id="right-wing">
	<path fill="none" stroke="#DA2327" stroke-width="7" stroke-linejoin="round" stroke-miterlimit="10" d="M70.4,81.9
		c-2.6,0.6-5.4-0.1-7.4-2.1c-2.1-2.1-2.7-5.3-1.9-8c3.9-21,32.5-48.9,32.5-48.9l0,0c7.3-6.9,18.6-6.5,25.7,0.6
		c7,7,7.2,18.1,0.6,25.7l0,0c0,0,0,0-0.2,0.2c-0.2,0.2-0.2,0.3-0.4,0.5c-0.2,0.2-0.4,0.4-0.6,0.5C112.6,56.4,88.7,79,70.4,81.9z"/>
</g>
<g id="left-wing">
	<path fill="none" stroke="#DA2327" stroke-width="7" stroke-linejoin="round" stroke-miterlimit="10" d="M45.8,24.1
		c-0.2-0.2-0.3-0.4-0.5-0.6c-0.2-0.2-0.3-0.3-0.5-0.4c-0.2-0.2-0.2-0.2-0.2-0.2l0,0c-7.5-6.6-18.7-6.4-25.7,0.6
		c-7.1,7.1-7.5,18.4-0.6,25.7l0,0c0,0,28,28.6,48.9,32.5c2.7,0.8,5.9,0.3,8-1.9c2-2,2.7-4.8,2.1-7.4C74.5,54.1,51.8,30.2,45.8,24.1z
		"/>
</g>
</svg>
