<?xml version="1.0" encoding="utf-8"?>
<!-- Generator: Adobe Illustrator 18.1.1, SVG Export Plug-In . SVG Version: 6.00 Build 0)  -->
<svg version="1.1" id="Layer_1" xmlns="http://www.w3.org/2000/svg" xmlns:xlink="http://www.w3.org/1999/xlink" x="0px" y="0px"
	 viewBox="0 0 600 300" enable-background="new 0 0 600 300" xml:space="preserve">
<g display="none">
	<g display="inline">
		<path fill="#FFFBE9" d="M249.9,278.5h-53.5c-10.1,0-18.4-8.3-18.4-18.4V39c0-10.1,8.3-18.4,18.4-18.4h53.5"/>
		<path fill="#221F1F" d="M249.9,285.6h-53.5c-14.1,0-25.5-11.4-25.5-25.5V39c0-14.1,11.4-25.5,25.5-25.5h53.5
			c3.7,0,7.1,3.1,7.1,7.1s-3.1,7.1-7.1,7.1h-53.5c-6.5,0-11.7,5.2-11.7,11.7v221c0,6.5,5.2,11.7,11.7,11.7h53.5
			c3.7,0,7.1,3.1,7.1,7.1C257,282.5,253.9,285.6,249.9,285.6z"/>
	</g>
	<g display="inline">
		<line fill="none" x1="244.4" y1="279.7" x2="244.4" y2="21.5"/>
		<path fill="#221F1F" d="M245.9,285.9c-3.7,0-7.7-3.1-7.7-7.1V20.6c0-3.7,4-7.1,7.7-7.1s7.7,3.1,7.7,7.1v258.2
			C253.6,282.8,249.6,285.9,245.9,285.9z"/>
	</g>
	<g display="inline">
		<path fill="#221F1F" d="M264,27.7H241c-3.7,0-7.1-3.1-7.1-7.1s3.1-7.1,7.1-7.1H264c3.7,0,7.1,3.1,7.1,7.1S267.7,27.7,264,27.7z"/>
		<path fill="#221F1F" d="M377.5,27.7h-37.8c-3.7,0-7.1-3.1-7.1-7.1s3.1-7.1,7.1-7.1h37.8c3.7,0,7.1,3.1,7.1,7.1
			S381.1,27.7,377.5,27.7z M320.6,27.7h-37.8c-3.7,0-7.1-3.1-7.1-7.1s3.1-7.1,7.1-7.1h37.8c3.7,0,7.1,3.1,7.1,7.1
			S324.6,27.7,320.6,27.7z"/>
		<path fill="#221F1F" d="M419.3,50.7c-3.7,0-7.1-3.1-7.1-7.1v-16h-16.3c-3.7,0-7.1-3.1-7.1-7.1s3.1-7.1,7.1-7.1H419
			c3.7,0,7.1,3.1,7.1,7.1v23.1C426.3,47.6,423.3,50.7,419.3,50.7z"/>
		<path fill="#221F1F" d="M419.3,241.3c-3.7,0-7.1-3.1-7.1-7.1v-42.1c0-3.7,3.1-7.1,7.1-7.1c3.7,0,7.1,3.1,7.1,7.1v42.4
			C426.3,238.2,423.3,241.3,419.3,241.3z M419.3,177.7c-3.7,0-7.1-3.1-7.1-7.1v-42.1c0-3.7,3.1-7.1,7.1-7.1c3.7,0,7.1,3.1,7.1,7.1
			v42.4C426.3,174.6,423.3,177.7,419.3,177.7z M419.3,114.3c-3.7,0-7.1-3.1-7.1-7.1V64.9c0-3.7,3.1-7.1,7.1-7.1
			c3.7,0,7.1,3.1,7.1,7.1v42.4C426.3,111.3,423.3,114.3,419.3,114.3z"/>
		<path fill="#221F1F" d="M419.3,285.6h-23.1c-3.7,0-7.1-3.1-7.1-7.1c0-3.7,3.1-7.1,7.1-7.1h16.3v-16.3c0-3.7,3.1-7.1,7.1-7.1
			c3.7,0,7.1,3.1,7.1,7.1v23.1C426.3,282.5,423.3,285.6,419.3,285.6z"/>
		<path fill="#221F1F" d="M377.5,285.6h-37.8c-3.7,0-7.1-3.1-7.1-7.1c0-3.7,3.1-7.1,7.1-7.1h37.8c3.7,0,7.1,3.1,7.1,7.1
			C384.2,282.5,381.1,285.6,377.5,285.6z M320.6,285.6h-37.8c-3.7,0-7.1-3.1-7.1-7.1c0-3.7,3.1-7.1,7.1-7.1h37.8
			c3.7,0,7.1,3.1,7.1,7.1S324.6,285.6,320.6,285.6z"/>
		<path fill="#221F1F" d="M264,285.6H241c-3.7,0-7.1-3.1-7.1-7.1c0-3.7,3.1-7.1,7.1-7.1H264c3.7,0,7.1,3.1,7.1,7.1
			C270.8,282.5,267.7,285.6,264,285.6z"/>
	</g>
	<path display="inline" fill="#221F1F" d="M343,159.8h-92.2c-3.7,0-7.1-2.5-7.1-6.1c0-3.7,3.1-6.1,7.1-6.1h75.6l-8.9-9.2
		c-2.8-2.8-2.8-7.4,0-9.8c2.8-2.8,7.1-2.8,9.8,0l20.9,20.6c1.8,1.8,2.5,4.6,1.5,7.1C348.3,158.6,345.8,159.8,343,159.8z"/>
	<path display="inline" fill="#221F1F" d="M322.4,181.4c-1.8,0-3.7-0.6-4.9-2.2c-2.8-2.8-2.8-7.4,0-10.1l8.9-9.2h-75.6
		c-3.7,0-7.1-2.5-7.1-6.1c0-3.7,3.1-6.1,7.1-6.1H343c2.8,0,5.2,1.2,6.5,4c0.9,2.5,0.6,5.2-1.5,7.4l-20.6,20.6
		C325.8,180.7,324,181.4,322.4,181.4z"/>
</g>
<g display="none">
	
		<polygon display="inline" fill="#FFFBE9" stroke="#231F20" stroke-width="6" stroke-linecap="round" stroke-linejoin="round" stroke-miterlimit="10" points="
		278.5,90.1 206.6,90.1 170.6,152.2 206.6,214.2 278.5,214.2 314.1,152.2 	"/>
	
		<polygon display="inline" fill="#FFFBE9" stroke="#231F20" stroke-width="6" stroke-linecap="round" stroke-linejoin="round" stroke-miterlimit="10" points="
		387.3,152.2 423.3,90.1 387.3,28 315.4,28 279.7,90.1 315.4,152.2 	"/>
	
		<polygon display="inline" fill="#FFFBE9" stroke="#231F20" stroke-width="6" stroke-linecap="round" stroke-linejoin="round" stroke-miterlimit="10" points="
		315.4,152.2 279.7,214.2 315.4,276.6 387.3,276.6 423.3,214.2 387.3,152.2 	"/>
</g>
<g>
	<path fill="#DA2327" d="M357.5,276.6c-38.7,0-70.1-31.4-70.1-70.1c0-7.4,1.2-14.8,3.4-21.8l0,0c0,0,2.8-10.8,0.6-19.7
		c-0.9-2.8-2.2-4.3-4.3-7.1c-3.7-4.3-4.9-8.9-3.4-12.9c0.9-2.8,3.7-6.5,11.1-7.7c13.2-2.2,26.4-3.4,39-3.4c16.9,0,29.8,2.2,37.5,3.7
		c3.7,0.6,7.4,1.8,10.8,3.1h0.3c0.3,0,0.3,0,0.6,0.3c26.7,10.5,44.9,36.6,44.9,65.5C427.6,245,396.2,276.6,357.5,276.6z
		 M300.6,186.6c0,0.3,0,0.6-0.3,0.6c-2.2,6.1-3.1,12.6-3.1,19.1c0,32.9,26.7,59.9,59.9,59.9c32.9,0,59.9-26.7,59.9-59.9
		c0-24.6-15.7-47.3-38.7-55.9h-0.3l0,0c-3.1-1.2-6.1-1.8-9.2-2.5l0,0c-7.4-1.5-19.4-3.7-35.3-3.7c-12,0-24.6,1.2-37.2,3.1
		c-2.2,0.3-3.1,0.9-3.1,1.2c0,0,0.3,1.2,1.5,2.8c2.5,3.1,4.6,5.5,6.5,10.5v0.3C304,172.7,301.5,184.1,300.6,186.6z"/>
</g>
<path fill="#DA2327" d="M388.8,234.2h-63.6c-2.8,0-5.2-2.2-5.2-5.2c0-2.8,2.2-5.2,5.2-5.2h63.6c2.8,0,5.2,2.2,5.2,5.2
	C394.1,232.1,391.6,234.2,388.8,234.2z"/>
<path fill="#DA2327" d="M388.8,212.4h-63.6c-2.8,0-5.2-2.2-5.2-5.2c0-2.8,2.2-5.2,5.2-5.2h63.6c2.8,0,5.2,2.2,5.2,5.2
	C394.1,210.2,391.6,212.4,388.8,212.4z"/>
<path fill="#DA2327" d="M388.8,189h-63.6c-2.8,0-5.2-2.2-5.2-5.2c0-3.1,2.2-5.2,5.2-5.2h63.6c2.8,0,5.2,2.2,5.2,5.2
	C394.1,186.9,391.6,189,388.8,189z"/>
<g>
	<path fill="#DA2327" d="M250.5,125.7c-2.5,0-4.6-0.6-6.8-1.5c-29.2-8-64.5-43.6-66.1-45.2c-0.3-0.3-0.3-0.3-0.6-0.6
		c-10.8-12-10.1-30.4,1.5-41.8c5.8-5.8,13.5-8.9,21.8-8.9c7.4,0,14.8,2.8,20.6,7.7l0,0c0,0,0,0,0.6,0.6c0.3,0.3,0.6,0.3,0.9,0.6
		s0.6,0.6,0.6,0.6v0.3c5.5,5.5,17.8,18.8,28.3,33.8c13.2-19.1,29.2-35,30.1-35.7c0.3-0.3,0.3-0.3,0.6-0.6c5.5-4.9,12.6-7.7,20-7.7
		c8.3,0,16,3.4,21.8,9.2c11.4,11.4,12,29.8,1.2,42.1l0,0c0,0,0,0-0.6,0.6c-0.3,0.3-0.3,0.6-0.6,0.6c-0.3,0.3-0.6,0.6-0.6,0.6
		l-0.3,0.3c-8.9,8.9-39.3,37.2-64.9,43.6c-1.8,0.9-4,1.2-6.1,1.2c0,0,0,0-0.3,0C251.4,125.7,251.1,125.7,250.5,125.7z M247.7,114.7
		c0.6,0.3,1.5,0.3,2.2,0.3c0.3,0,0.3,0,0.6,0s0.9,0.3,1.2,0.3h0.3h0.3c0.9,0,1.5-0.3,2.5-0.6c0.3-0.3,0.9-0.6,1.2-0.9
		c1.5-1.5,2.2-3.4,1.5-5.2v-0.3c-0.6-4.9-2.8-10.8-6.1-16.9c-3.1,6.1-5.2,11.4-6.1,16.3c0,0.3,0,0.3,0,0.6c-0.6,2.2,0,4.3,1.2,5.8
		C246.8,114,247.1,114.3,247.7,114.7z M267.7,106.4c0.3,1.2,0.3,2.5,0.3,3.4c16-8,34.4-23.1,47.6-36.3l0,0l0.3-0.3
		c0,0,0.3,0,0.3-0.3c0-0.3,0.3-0.3,0.3-0.6l0,0c0,0,0,0,0.3-0.3c7.4-8.3,7.1-20.6-0.6-28.3c-4-4-9.2-6.1-14.4-6.1
		c-4.9,0-9.8,1.8-13.5,5.5l-0.3,0.3c-2.8,2.8-19.1,19.4-30.7,37.5C263.1,90.4,266.5,99,267.7,106.4z M185.7,72.2
		c3.4,3.4,26.7,26.4,49.2,37.5c0-1.5,0.3-3.1,0.6-4.3c1.5-7.1,4.6-15.4,10.1-24.3c-10.5-16-24-30.4-29.5-36.3l0,0l-0.3-0.3
		c0,0,0-0.3-0.3-0.3c-0.3,0-0.3-0.3-0.6-0.3l0,0c0,0,0,0-0.3-0.3c-4-3.4-8.9-5.2-13.8-5.2c-5.5,0-10.5,2.2-14.1,5.8
		c-8,8-8.3,20.3-0.6,28.3C185.3,71.9,185.7,72.2,185.7,72.2z"/>
</g>
</svg>
