<?xml version="1.0" encoding="utf-8"?>
<!-- Generator: Adobe Illustrator 18.1.1, SVG Export Plug-In . SVG Version: 6.00 Build 0)  -->
<svg version="1.1" id="Layer_1" xmlns="http://www.w3.org/2000/svg" xmlns:xlink="http://www.w3.org/1999/xlink" x="0px" y="0px"
	 viewBox="0 0 80 80" enable-background="new 0 0 80 80" xml:space="preserve">
<g display="none">
	<g display="inline">
		<path fill="#FFFBE9" d="M26.6,74.3H12.4c-2.7,0-4.9-2.2-4.9-4.9v-59c0-2.7,2.2-4.9,4.9-4.9h14.3"/>
		<path fill="#221F1F" d="M26.6,76.1H12.4c-3.8,0-6.8-3-6.8-6.8V10.4c0-3.8,3-6.8,6.8-6.8h14.3c1,0,1.9,0.8,1.9,1.9
			s-0.8,1.9-1.9,1.9H12.4c-1.7,0-3.1,1.4-3.1,3.1v58.9c0,1.7,1.4,3.1,3.1,3.1h14.3c1,0,1.9,0.8,1.9,1.9
			C28.5,75.3,27.7,76.1,26.6,76.1z"/>
	</g>
	<g display="inline">
		<line fill="none" x1="25.2" y1="74.6" x2="25.2" y2="5.7"/>
		<path fill="#221F1F" d="M25.6,76.2c-1,0-2-0.8-2-1.9V5.5c0-1,1.1-1.9,2-1.9s2,0.8,2,1.9v68.9C27.6,75.4,26.6,76.2,25.6,76.2z"/>
	</g>
	<g display="inline">
		<path fill="#221F1F" d="M30.4,7.4h-6.1c-1,0-1.9-0.8-1.9-1.9s0.8-1.9,1.9-1.9h6.1c1,0,1.9,0.8,1.9,1.9S31.4,7.4,30.4,7.4z"/>
		<path fill="#221F1F" d="M60.7,7.4H50.6c-1,0-1.9-0.8-1.9-1.9s0.8-1.9,1.9-1.9h10.1c1,0,1.9,0.8,1.9,1.9S61.6,7.4,60.7,7.4z
			 M45.5,7.4H35.4c-1,0-1.9-0.8-1.9-1.9s0.8-1.9,1.9-1.9h10.1c1,0,1.9,0.8,1.9,1.9S46.6,7.4,45.5,7.4z"/>
		<path fill="#221F1F" d="M71.8,13.5c-1,0-1.9-0.8-1.9-1.9V7.4h-4.3c-1,0-1.9-0.8-1.9-1.9s0.8-1.9,1.9-1.9h6.1c1,0,1.9,0.8,1.9,1.9
			v6.1C73.7,12.7,72.9,13.5,71.8,13.5z"/>
		<path fill="#221F1F" d="M71.8,64.3c-1,0-1.9-0.8-1.9-1.9V51.2c0-1,0.8-1.9,1.9-1.9c1,0,1.9,0.8,1.9,1.9v11.3
			C73.7,63.5,72.9,64.3,71.8,64.3z M71.8,47.4c-1,0-1.9-0.8-1.9-1.9V34.3c0-1,0.8-1.9,1.9-1.9c1,0,1.9,0.8,1.9,1.9v11.3
			C73.7,46.6,72.9,47.4,71.8,47.4z M71.8,30.5c-1,0-1.9-0.8-1.9-1.9V17.3c0-1,0.8-1.9,1.9-1.9c1,0,1.9,0.8,1.9,1.9v11.3
			C73.7,29.7,72.9,30.5,71.8,30.5z"/>
		<path fill="#221F1F" d="M71.8,76.1h-6.1c-1,0-1.9-0.8-1.9-1.9c0-1,0.8-1.9,1.9-1.9H70V68c0-1,0.8-1.9,1.9-1.9c1,0,1.9,0.8,1.9,1.9
			v6.1C73.7,75.3,72.9,76.1,71.8,76.1z"/>
		<path fill="#221F1F" d="M60.7,76.1H50.6c-1,0-1.9-0.8-1.9-1.9c0-1,0.8-1.9,1.9-1.9h10.1c1,0,1.9,0.8,1.9,1.9
			C62.5,75.3,61.6,76.1,60.7,76.1z M45.5,76.1H35.4c-1,0-1.9-0.8-1.9-1.9c0-1,0.8-1.9,1.9-1.9h10.1c1,0,1.9,0.8,1.9,1.9
			S46.6,76.1,45.5,76.1z"/>
		<path fill="#221F1F" d="M30.4,76.1h-6.1c-1,0-1.9-0.8-1.9-1.9c0-1,0.8-1.9,1.9-1.9h6.1c1,0,1.9,0.8,1.9,1.9
			C32.2,75.3,31.4,76.1,30.4,76.1z"/>
	</g>
	<path display="inline" fill="#221F1F" d="M51.5,42.6H26.9c-1,0-1.9-0.7-1.9-1.6s0.8-1.6,1.9-1.6H47l-2.4-2.5c-0.7-0.7-0.7-2,0-2.6
		c0.7-0.7,1.9-0.7,2.6,0l5.6,5.5c0.5,0.5,0.7,1.2,0.4,1.9C52.9,42.3,52.2,42.6,51.5,42.6z"/>
	<path display="inline" fill="#221F1F" d="M46,48.4c-0.5,0-1-0.2-1.3-0.6c-0.7-0.7-0.7-2,0-2.7l2.4-2.5H26.9c-1,0-1.9-0.7-1.9-1.6
		s0.8-1.6,1.9-1.6h24.6c0.7,0,1.4,0.3,1.7,1.1c0.2,0.7,0.2,1.4-0.4,2L47.3,48C46.9,48.2,46.4,48.4,46,48.4z"/>
</g>
<g>
	
		<polygon fill="#FEF5CC" stroke="#231F20" stroke-width="5" stroke-linecap="round" stroke-linejoin="round" stroke-miterlimit="10" points="
		34.3,24 15.1,24 5.5,40.6 15.1,57.1 34.3,57.1 43.8,40.6 	"/>
	
		<polygon fill="#FEF5CC" stroke="#231F20" stroke-width="5" stroke-linecap="round" stroke-linejoin="round" stroke-miterlimit="10" points="
		63.3,40.6 72.9,24 63.3,7.5 44.1,7.5 34.6,24 44.1,40.6 	"/>
	
		<polygon fill="#FEF5CC" stroke="#231F20" stroke-width="5" stroke-linecap="round" stroke-linejoin="round" stroke-miterlimit="10" points="
		44.1,40.6 34.6,57.1 44.1,73.8 63.3,73.8 72.9,57.1 63.3,40.6 	"/>
</g>
</svg>
