<?xml version="1.0" encoding="utf-8"?>
<!-- Generator: Adobe Illustrator 18.1.1, SVG Export Plug-In . SVG Version: 6.00 Build 0)  -->
<svg version="1.1" id="Layer_1" xmlns="http://www.w3.org/2000/svg" xmlns:xlink="http://www.w3.org/1999/xlink" x="0px" y="0px"
	 viewBox="-743 745 512 512" enable-background="new -743 745 512 512" xml:space="preserve">
<path id="github-icon" fill="#DA2327" d="M-487,800.1c-113.8,0-206,92.2-206,206c0,91,59,168.2,140.9,195.5
	c10.3,1.9,13.6-4.5,13.6-9.9v-38.4c-57.3,12.5-69.2-24.3-69.2-24.3c-9.4-23.8-22.9-30.2-22.9-30.2c-18.7-12.8,1.4-12.5,1.4-12.5
	c20.7,1.5,31.6,21.2,31.6,21.2c18.4,31.5,48.2,22.4,59.9,17.1c1.8-13.3,7.2-22.4,13.1-27.5c-45.8-5.2-93.8-22.9-93.8-101.8
	c0-22.5,8-40.9,21.2-55.3c-2.1-5.2-9.2-26.2,2-54.5c0,0,17.3-5.5,56.7,21.1c16.4-4.6,34.1-6.9,51.6-6.9c17.5,0.1,35.2,2.4,51.6,6.9
	c39.3-26.7,56.6-21.1,56.6-21.1c11.2,28.4,4.2,49.3,2,54.5c13.2,14.4,21.2,32.8,21.2,55.3c0,79.1-48.2,96.5-94.1,101.6
	c7.4,6.4,14.1,18.9,14.1,38.2c0,27.6,0,49.8,0,56.5c0,5.5,3.3,11.9,13.7,9.9c81.8-27.3,140.8-104.5,140.8-195.5
	C-281,892.3-373.2,800.1-487,800.1z"/>
</svg>
