<?xml version="1.0" encoding="utf-8"?>
<!-- Generator: Adobe Illustrator 18.1.1, SVG Export Plug-In . SVG Version: 6.00 Build 0)  -->
<svg version="1.1" id="headerfly" xmlns="http://www.w3.org/2000/svg" xmlns:xlink="http://www.w3.org/1999/xlink" x="0px" y="0px"
	 viewBox="0 0 173.7 131" enable-background="new 0 0 173.7 131" xml:space="preserve">
<path id="circle" fill="#DA2327" d="M79.3,123.7c-2.1,0-4.3-0.2-6.3-0.6c-0.7-0.1-1.1-0.8-1-1.5c0.1-0.7,0.8-1.1,1.5-1
	c3.8,0.7,7.7,0.7,11.5,0.1c0.7-0.1,1.3,0.3,1.4,1c0.1,0.7-0.3,1.3-1,1.4C83.4,123.6,81.4,123.7,79.3,123.7z M95.8,119.4
	c-0.4,0-0.9-0.2-1.1-0.6c-0.3-0.6-0.1-1.4,0.5-1.7c3.4-1.9,6.3-4.4,8.8-7.3c0.4-0.5,1.2-0.6,1.8-0.2c0.5,0.4,0.6,1.2,0.2,1.8
	c-2.7,3.2-5.9,5.9-9.5,7.9C96.2,119.4,96,119.4,95.8,119.4z M62.6,119.3c-0.2,0-0.4-0.1-0.6-0.2c-3.6-2.1-6.8-4.8-9.4-8
	c-0.4-0.5-0.4-1.3,0.2-1.8c0.5-0.4,1.3-0.4,1.8,0.2c2.5,3,5.4,5.5,8.8,7.4c0.6,0.3,0.8,1.1,0.5,1.7
	C63.5,119.1,63.1,119.3,62.6,119.3z M110.7,102c-0.1,0-0.3,0-0.4-0.1c-0.6-0.2-1.2-1-1-1.6c1.4-3.6,1.8-7.4,1.8-11.3V89
	c0-0.7,0.8-1.2,1.5-1.2s1.5,0.6,1.5,1.2v0.1c0,4.2-0.7,8.3-2.2,12.2C111.6,101.7,111.2,102,110.7,102z M47.9,101.8
	c-0.5,0-1-0.3-1.2-0.8c-1.4-3.8-2.1-7.8-2.1-11.9l0-0.1c0-0.7,0.6-1,1.2-1c0,0,0,0,0,0c0.7,0,1.2,0.3,1.2,1l0,0.2
	c0,3.8,0.7,7.5,1.9,11c0.2,0.6-0.1,1.3-0.7,1.6C48.2,101.8,48,101.8,47.9,101.8z M110.9,79.1c-0.5,0-1-0.3-1.2-0.8
	c-1.3-3.6-3.2-7-5.7-10c-0.4-0.5-0.4-1.3,0.1-1.8c0.5-0.4,1.3-0.4,1.8,0.1c2.7,3.2,4.8,6.8,6.2,10.7c0.2,0.6-0.1,1.4-0.8,1.6
	C111.1,79.1,111,79.1,110.9,79.1z M47.9,78.9c-0.1,0-0.3,0-0.4-0.1c-0.6-0.2-1-0.9-0.7-1.6c1.4-3.9,3.5-7.5,6.2-10.7
	c0.4-0.5,1.2-0.6,1.8-0.1c0.5,0.4,0.6,1.2,0.1,1.8c-2.5,3-4.5,6.3-5.8,9.9C48.9,78.6,48.4,78.9,47.9,78.9z M96.3,61.5
	c-0.2,0-0.4-0.1-0.6-0.2c-3.3-2-7-3.3-10.8-4c-0.7-0.1-1.1-0.8-1-1.4c0.1-0.7,0.8-1.1,1.4-1c4.1,0.7,8,2.1,11.6,4.3
	c0.6,0.3,0.8,1.1,0.4,1.7C97.1,61.2,96.7,61.5,96.3,61.5z M62.6,61.3c-0.4,0-0.8-0.2-1.1-0.6c-0.3-0.6-0.1-1.4,0.5-1.7
	c3.6-2.1,7.5-3.5,11.6-4.2c0.7-0.1,1.3,0.3,1.4,1c0.1,0.7-0.3,1.3-1,1.4c-3.8,0.6-7.5,1.9-10.8,3.9C63,61.3,62.8,61.3,62.6,61.3z"/>
<g id="letters">
	<path fill="#DA2327" d="M19.3,58.5c0.4,0,0.7,0,0.9,0v0.9c-0.3,0-0.5,0-0.9,0h-1.8c-0.2,0.1-0.3,0.1-0.5,0.3c0.2,0,0.4,0,0.7,0h1.1
		c0.4,0,0.5,0,0.7,0c0,0.1,0,0.3,0,0.7v1.2c0,0.4,0,0.6,0,0.8h-1.1V62h-2.4v0.3h-1.1c0-0.2,0-0.4,0-0.8v-0.8
		c-0.2,0.1-0.5,0.2-0.9,0.3c-0.2-0.4-0.3-0.6-0.5-0.9c0.9-0.2,1.6-0.4,2.4-0.8h-1.4c-0.4,0-0.7,0-0.9,0v-0.9c0.2,0,0.5,0,0.9,0h1.4
		v-0.2h-1c-0.3,0-0.5,0-0.7,0v-0.8l-0.1,0.1c-0.3-0.3-0.4-0.5-0.7-0.8c0.6-0.4,0.9-0.8,1-1.3l1.1,0.2l-0.1,0.3h0.8
		c0.3,0,0.5,0,0.7,0v0.5c0.2-0.3,0.4-0.5,0.4-0.9l1.1,0.1c-0.1,0.1-0.1,0.2-0.1,0.3h1.1c0.4,0,0.6,0,0.8,0v1c-0.2,0-0.4,0-0.8,0
		h-0.4c0.1,0.2,0.1,0.2,0.2,0.4l-0.3,0l0.8,0.4c-0.2,0.2-0.3,0.2-0.3,0.3c-0.3,0.3-0.4,0.3-0.6,0.5H19.3z M14.9,56.8
		c-0.3,0.3-0.4,0.5-0.6,0.7c0.2,0,0.4,0,0.7,0h1c0-0.1,0-0.1,0-0.2l-0.6,0.1c-0.1-0.2-0.1-0.3-0.2-0.6H14.9z M15.9,60.5h2.4v-0.2
		h-2.4V60.5z M15.9,61.3h2.4v-0.2h-2.4V61.3z M18.1,58c0.3-0.3,0.5-0.5,0.7-0.7l-0.5,0.1c-0.1-0.2-0.1-0.3-0.3-0.5h-0.2
		c-0.2,0.2-0.2,0.3-0.5,0.5c-0.2-0.2-0.4-0.4-0.7-0.5c-0.1,0-0.1,0-0.1,0h-0.4c0.1,0.1,0.1,0.2,0.2,0.3H17c0,0.1,0,0.2,0,0.4h0.5
		c0.3,0,0.5,0,0.7,0V58z M17.4,58.5c0.1-0.1,0.2-0.1,0.3-0.2c-0.2,0-0.2,0-0.3,0H17v0.2H17.4z"/>
	<path fill="#DA2327" d="M13.7,63.5c0.1,0,0.2,0,0.3,0c0.2,0,0.4,0,1.2-0.1c1.1-0.1,1.6-0.1,3.8-0.2c0.6,0,0.7,0,0.8-0.1l0.1,1.3
		c-0.1,0-0.1,0-0.2,0c-0.5,0-1.1,0.2-1.6,0.5c-0.7,0.4-1.1,1-1.1,1.6c0,0.4,0.2,0.7,0.6,0.9c0.3,0.1,0.9,0.3,1.4,0.3
		c0.1,0,0.1,0,0.2,0l-0.2,1.4c-0.1,0-0.1,0-0.3,0c-0.8-0.1-1.4-0.2-1.8-0.4c-0.8-0.4-1.3-1.1-1.3-2c0-0.6,0.2-1.1,0.6-1.6
		c0.2-0.2,0.4-0.4,0.7-0.6l-2.5,0.2c-0.3,0-0.4,0-0.6,0.1L13.7,63.5z M18.7,66.3c-0.2-0.4-0.3-0.7-0.5-1l0.7-0.3
		c0.2,0.3,0.4,0.6,0.6,1L18.7,66.3z M19.6,65.9c-0.2-0.4-0.3-0.6-0.5-1l0.7-0.3c0.2,0.3,0.4,0.5,0.6,0.9L19.6,65.9z"/>
	<path fill="#DA2327" d="M16.4,70.4c0,0.1,0,0.1-0.1,0.3c0,0,0,0.1,0,0.1c0,0,0,0.1,0,0.2c-0.2,1.1-0.3,1.7-0.5,2.4
		c-0.3,1-0.7,1.7-1.3,2.4c-0.4-0.4-0.7-0.6-1.2-0.9c0.5-0.5,0.7-0.9,1-1.6c0.4-1,0.7-2.2,0.7-3.2L16.4,70.4z M18.5,70.2
		c0,0.3,0.1,1,0.3,1.6c0.2,0.7,0.4,1.4,0.7,2c0.2,0.4,0.4,0.7,0.8,1.2c-0.5,0.3-0.8,0.5-1.1,0.9c-0.6-0.7-0.9-1.4-1.2-2.3
		c-0.3-0.8-0.5-1.7-0.6-2.6c0-0.3-0.1-0.5-0.1-0.6L18.5,70.2z"/>
	<path fill="#DA2327" d="M17.5,81.1h1.4c0.6,0,0.9,0,1.2-0.1v1.3c-0.3,0-0.6,0-1.2,0h-4c-0.6,0-0.8,0-1.2,0v-1.3
		c0.3,0,0.6,0.1,1.2,0.1h1.3v-2.7h-0.8c-0.7,0-0.8,0-1.2,0v-1.2c0.4,0.1,0.6,0.1,1.2,0.1h2.9c0.6,0,0.9,0,1.2-0.1v1.2
		c-0.3,0-0.5,0-1.2,0h-0.9V81.1z"/>
	<path fill="#DA2327" d="M14,84.3c0.3,0.1,0.7,0.1,1.5,0.1c0,0,0.1,0,0.2,0c0.1-0.3,0.2-0.5,0.2-0.8l1.3,0.1
		c-0.1,0.1-0.1,0.1-0.2,0.3c-0.1,0.2-0.1,0.3-0.1,0.3c0.1,0,0.1,0,0.4,0c0.7,0,1.4-0.1,1.8-0.2l0,1.1c-0.2,0-0.4,0-0.6,0.1
		c-0.5,0.1-1.4,0.1-2.1,0.1c-0.1,0.2-0.2,0.3-0.3,0.5c0.3-0.1,0.6-0.2,0.9-0.2c0.6,0,1,0.2,1.1,0.7c0.1,0,0.1,0,0.5-0.2
		c0,0,0.2-0.1,0.4-0.1c0.4-0.1,0.5-0.2,0.6-0.2L20,87c-0.4,0-1.1,0.3-1.8,0.5c0,0.2,0,0.2,0,0.5c0,0.3,0,0.4,0,0.6l-1.2,0
		c0-0.1,0-0.3,0-0.8L17,88c-0.3,0.2-0.4,0.2-0.5,0.3c-0.1,0.1-0.2,0.2-0.2,0.4c0,0.3,0.3,0.4,1,0.4c0.9,0,1.7-0.1,2.3-0.4l0.1,1.3
		c-0.2,0-0.2,0-0.6,0.1c-0.6,0.1-1.2,0.1-1.7,0.1c-0.8,0-1.3-0.1-1.7-0.3c-0.4-0.2-0.6-0.6-0.6-1c0-0.3,0.1-0.6,0.4-0.9
		c0.3-0.3,0.6-0.5,1-0.8c0.2-0.1,0.2-0.1,0.5-0.2c-0.1-0.1-0.2-0.2-0.3-0.2c-0.4,0-0.9,0.3-1.4,0.7c-0.3,0.3-0.5,0.5-0.7,0.7
		l-0.9-0.9c0.2-0.2,0.5-0.5,0.8-0.7c0.2-0.2,0.4-0.6,0.6-0.8c0.1-0.2,0.1-0.2,0.1-0.2c-0.1,0-0.2,0-0.2,0c-0.3,0-0.3,0-0.6,0
		c-0.1,0-0.2,0-0.3,0c0,0-0.1,0-0.1,0L14,84.3z"/>
	<path fill="#DA2327" d="M16.9,96.7c0,0.5,0,0.6,0,0.8h-1.1c0-0.3,0-0.5,0-0.8v-3.2c0-0.1,0-0.1,0-0.5c-0.1,0-0.2,0-0.3,0h-0.1v0.8
		c0.1,0,0.2,0,0.3-0.1v1c-0.1,0-0.2,0.1-0.3,0.1v1.8c0,0.3-0.1,0.5-0.2,0.7c-0.2,0.2-0.4,0.2-0.9,0.2c-0.2,0-0.3,0-0.6,0
		c0-0.4-0.1-0.7-0.2-1c0.2,0,0.4,0,0.6,0c0.2,0,0.2,0,0.2-0.2v-1.2c-0.5,0.1-0.5,0.1-0.7,0.2l-0.2-1.1c0.2,0,0.2,0,0.8-0.1v-1h-0.3
		c-0.2,0-0.3,0-0.5,0V92c0.2,0,0.3,0,0.5,0h0.2v-0.5c0-0.4,0-0.5,0-0.7h1.1c0,0.2,0,0.4,0,0.7v0.5h0.1c0.1,0,0.1,0,0.2,0v-0.6
		c0.2,0,0.4,0,0.7,0h0.9v-0.1c0-0.3,0-0.4,0-0.6h1.1c0,0.2,0,0.3,0,0.6v0.1H19c-0.1-0.2-0.1-0.3-0.2-0.4l0.9-0.3
		c0.1,0.2,0.3,0.4,0.4,0.7c0.1,0,0.1,0,0.3,0v1.1c-0.2,0-0.3,0-0.6,0h-1.2v0.3h1c0.3,0,0.5,0,0.6,0c0,0.2,0,0.3,0,0.8v3.2
		c0,0.6-0.2,0.8-1,0.8c-0.1,0-0.1,0-0.4,0c0-0.4-0.1-0.6-0.2-0.9c0.1,0,0.3,0,0.4,0c0.1,0,0.1,0,0.1-0.2v-0.3h-0.6v0.7
		c0,0.4,0,0.5,0,0.7h-1.1c0-0.2,0-0.3,0-0.7v-0.7h-0.5V96.7z M15.9,92.8c0.2,0,0.3,0,0.7,0h0.8v-0.3h-1.1c-0.2,0-0.4,0-0.5,0V92.8z
		 M17.4,94.1v-0.3h-0.5v0.3H17.4z M17.4,95.3v-0.4h-0.5v0.4H17.4z M19,94.1v-0.3h-0.6v0.3H19z M19,95.3v-0.4h-0.6v0.4H19z"/>
	<path fill="#DA2327" d="M15.8,99.7c-0.1,0.4-0.2,1.1-0.3,1.7c0.6-0.4,1.2-0.6,2-0.6c1.3,0,2.1,0.7,2.1,1.7c0,0.6-0.3,1.2-0.8,1.5
		c-0.5,0.4-1.2,0.5-2,0.5c-0.6,0-1.1-0.1-1.8-0.2c0-0.6,0-0.8-0.2-1.3c0.7,0.2,1.4,0.3,1.9,0.3c0.9,0,1.6-0.3,1.6-0.8
		c0-0.4-0.4-0.6-1-0.6c-0.5,0-1.1,0.1-1.6,0.4c-0.2,0.1-0.3,0.2-0.4,0.3l-1.2-0.1c0-0.1,0-0.1,0-0.1c0-0.3,0.2-1.5,0.3-2.5
		c0-0.2,0-0.3,0-0.5L15.8,99.7z M15.7,98.1c0.4,0.2,0.8,0.3,1.5,0.5c0.5,0.1,1.1,0.3,1.4,0.3l-0.4,1.2c-1.3-0.3-2.3-0.6-3.1-0.9
		L15.7,98.1z"/>
	<path fill="#DA2327" d="M14.3,107.3c0.2,0,0.3,0,0.4,0c0.8,0,1.6,0,2.7-0.2c0.4,0,0.5-0.1,0.7-0.1l0.6,0.8
		c-0.1,0.1-0.3,0.2-0.6,0.5c-0.3,0.3-1,0.9-1.1,1c0.1,0,0.2-0.1,0.3-0.1c0.3,0,0.5,0.1,0.6,0.3c0.1,0.2,0.1,0.3,0.2,0.8
		c0,0.4,0.1,0.5,0.4,0.5c0.5,0,1.1-0.1,1.5-0.3l0.1,1.2c-0.3,0-0.3,0-0.7,0.1c-0.5,0.1-0.7,0.1-1.1,0.1c-0.6,0-1-0.1-1.2-0.5
		c-0.1-0.2-0.1-0.3-0.2-0.7c0-0.3,0-0.4-0.1-0.5c-0.1-0.1-0.1-0.1-0.2-0.1c-0.3,0-0.6,0.2-1.2,0.8c-0.4,0.4-0.7,0.7-0.9,1l-0.9-1.1
		c0.5-0.3,1.2-1,2.5-2.1c0.3-0.3,0.4-0.4,0.7-0.6c-0.4,0.1-0.8,0.1-1.7,0.2c-0.3,0-0.4,0-0.6,0.1L14.3,107.3z M15.3,105.4
		c0.8,0.2,1.8,0.3,3.1,0.3l-0.2,1.1c-1.6-0.1-2.3-0.1-3.3-0.4L15.3,105.4z"/>
	<path fill="#DA2327" d="M14.6,113c0.3,0,0.6,0.1,1,0.1c0.6,0,1.4,0,2.2-0.1c0.3,0,0.4,0,0.5-0.1l0.6,0.9c-0.2,0.1-0.2,0.1-1.2,0.9
		c-0.4,0.3-0.5,0.4-1,0.8c0.4-0.1,0.6-0.1,1-0.1c0.7,0,1.2,0.2,1.5,0.5c0.3,0.3,0.5,0.7,0.5,1.2c0,0.7-0.3,1.3-1,1.7
		c-0.5,0.3-1.2,0.5-1.9,0.5c-1.2,0-1.9-0.5-1.9-1.3c0-0.7,0.6-1.1,1.4-1.1c0.5,0,1,0.2,1.3,0.6c0.1,0.2,0.2,0.3,0.3,0.6
		c0.4-0.2,0.6-0.4,0.6-0.8c0-0.5-0.5-0.8-1.3-0.8c-0.8,0-1.6,0.2-2.2,0.7c-0.2,0.1-0.5,0.3-0.7,0.5l-0.7-1.1
		c0.7-0.3,2.2-1.5,3.1-2.4c-0.4,0-0.7,0.1-1.7,0.1c-0.2,0-0.3,0-0.5,0L14.6,113z M16.3,117.7c-0.2,0-0.3,0.1-0.3,0.2
		c0,0.2,0.2,0.3,0.6,0.3c0.1,0,0.1,0,0.2,0C16.8,117.8,16.6,117.7,16.3,117.7z"/>
	<path fill="#DA2327" d="M6.2,59c-0.3,0-0.6,0-0.7,0c0-0.2,0-0.4,0-0.7v-1.8c0-0.4,0-0.6,0-0.8c0.2,0,0.4,0,0.8,0h3.9
		c0.4,0,0.6,0,0.8,0c0,0.2,0,0.4,0,0.8v1.7c0,0.3,0,0.5,0,0.8c-0.2,0-0.5,0-0.7,0H8.6c0,0.2,0,0.2-0.1,0.4h1.8c0.3,0,0.6,0,0.8,0
		c0,0.2,0,0.2-0.1,0.5c-0.1,0.8-0.1,1.4-0.3,1.7c-0.2,0.4-0.6,0.6-1.4,0.6c-0.2,0-0.5,0-0.8,0c-0.1-0.4-0.1-0.6-0.3-1.1
		c0.4,0,0.8,0.1,1.1,0.1c0.4,0,0.4-0.1,0.5-0.9H8.3c-0.2,0.5-0.6,0.9-1,1.2c-0.5,0.4-1,0.6-1.8,0.8c-0.2-0.4-0.4-0.7-0.6-1
		c1.2-0.2,1.8-0.5,2.2-1H6c-0.4,0-0.6,0-0.9,0v-1c0.2,0,0.5,0,0.9,0h1.5c0-0.2,0-0.2,0.1-0.4H6.2z M6.5,56.6V57h1.1v-0.3H6.5z
		 M6.5,57.8v0.3h1.1v-0.3H6.5z M9.9,57v-0.3H8.7V57H9.9z M9.9,58.1v-0.3H8.7v0.3H9.9z"/>
	<path fill="#DA2327" d="M4.8,64.6C4.9,64.6,4.9,64.6,4.8,64.6c0.3,0,1-0.1,1.4-0.1c0.1-0.7,0.2-1.2,0.2-1.4c0,0,0-0.1,0-0.1
		l1.3,0.1c0,0.1,0,0.1-0.1,0.6c-0.1,0.3-0.1,0.6-0.1,0.8c0.1,0,0.2,0,0.3,0c0.4,0,0.8,0.1,1,0.3c0.4,0.3,0.5,0.7,0.5,1.5
		c0,1.1-0.2,2-0.5,2.5c-0.1,0.2-0.3,0.3-0.5,0.4c-0.1,0.1-0.3,0.1-0.6,0.1c-0.3,0-0.7-0.1-1.1-0.2c0-0.2,0-0.3,0-0.4
		c0-0.3,0-0.5-0.1-0.9c0.4,0.2,0.8,0.3,1,0.3c0.2,0,0.2-0.1,0.3-0.3c0.1-0.3,0.2-1,0.2-1.6c0-0.3,0-0.5-0.1-0.6
		c-0.1-0.1-0.2-0.1-0.4-0.1c-0.1,0-0.1,0-0.3,0c-0.1,0.6-0.3,1.1-0.5,1.8C6.6,68,6.4,68.3,6,69.1C6,69.3,6,69.3,5.9,69.4l-1.2-0.6
		c0.5-0.6,1.1-2,1.3-3.2c-0.5,0.1-0.9,0.1-1.1,0.2L4.8,64.6z M9.6,63.3c0.3,0.3,0.5,0.6,0.6,0.9l-0.7,0.3c-0.2-0.4-0.4-0.7-0.6-1
		L9.6,63.3z M10.5,64.3c0.5,0.8,0.9,1.6,1.1,2.6l-1.2,0.6c-0.1-0.6-0.2-1-0.5-1.6c-0.2-0.5-0.3-0.7-0.5-1.1L10.5,64.3z M10.5,62.9
		c0.3,0.3,0.5,0.6,0.6,0.9l-0.7,0.3c-0.2-0.4-0.4-0.6-0.6-0.9L10.5,62.9z"/>
	<path fill="#DA2327" d="M7.1,70.6C7,70.9,7,71.1,6.6,71.9v3.9c0,0.4,0,0.7,0,1H5.5c0-0.3,0-0.6,0-1v-1.6c0-0.4,0-0.4,0-0.7
		c-0.1,0.2-0.3,0.4-0.4,0.5c-0.1-0.6-0.2-0.8-0.5-1.2c0.4-0.4,0.7-0.9,1-1.5c0.2-0.5,0.3-0.9,0.4-1.2l1,0.4v-0.1c0.3,0,0.5,0,0.9,0
		h2.6c0.4,0,0.6,0,0.9,0v1.1c-0.2,0-0.2,0-0.5,0v4.5c0,0.5-0.1,0.7-0.5,0.8c-0.2,0.1-0.6,0.1-1.1,0.1c0,0-0.1,0-0.5,0
		c-0.1-0.5-0.1-0.7-0.3-1.1c0.3,0,0.7,0,0.9,0c0.3,0,0.3,0,0.3-0.2v-4.1H8c-0.4,0-0.7,0-0.9,0V70.6z M7.1,75.3c0-0.2,0-0.4,0-0.6
		v-2.3c0-0.2,0-0.4,0-0.6c0.2,0,0.3,0,0.5,0h1.5c0.3,0,0.4,0,0.5,0c0,0.2,0,0.2,0,0.5v1.9c0,0.3,0,0.4,0,0.6c-0.2,0-0.2,0-0.5,0h-1
		v0.4H7.1z M8.1,73.9h0.5v-1.1H8.1V73.9z"/>
	<path fill="#DA2327" d="M4.9,79C4.9,79,4.9,79,4.9,79c0.3,0,1-0.1,1.4-0.1c0.1-0.8,0.2-1.2,0.2-1.4c0,0,0-0.1,0-0.1l1.3,0.1
		c0,0.1,0,0.1-0.1,0.6c-0.1,0.3-0.1,0.6-0.1,0.8c0.1,0,0.2,0,0.3,0c0.4,0,0.8,0.1,1,0.3c0.4,0.3,0.5,0.7,0.5,1.5
		c0,1.1-0.2,2-0.5,2.5c-0.1,0.2-0.3,0.3-0.5,0.4c-0.1,0.1-0.3,0.1-0.6,0.1c-0.3,0-0.7-0.1-1.1-0.2c0-0.2,0-0.3,0-0.4
		c0-0.3,0-0.5-0.1-0.9c0.4,0.2,0.8,0.3,1,0.3c0.2,0,0.2-0.1,0.3-0.3c0.1-0.3,0.2-1,0.2-1.6c0-0.3,0-0.5-0.1-0.6
		c-0.1-0.1-0.2-0.1-0.4-0.1c-0.1,0-0.1,0-0.3,0C7.2,80.5,7,81,6.8,81.7c-0.2,0.7-0.3,1-0.8,1.8C6,83.6,6,83.7,5.9,83.8l-1.2-0.6
		c0.5-0.6,1.1-2,1.3-3.2c-0.5,0.1-0.9,0.1-1.1,0.2L4.9,79z M10.2,78.2c0.7,0.9,1.2,1.9,1.5,3.1l-1.2,0.6c-0.2-1.3-0.7-2.3-1.3-3.1
		L10.2,78.2z"/>
	<path fill="#DA2327" d="M5.2,85.2c0.3,0.1,0.7,0.1,1.5,0.1c0,0,0.1,0,0.2,0c0.1-0.3,0.2-0.5,0.2-0.8l1.3,0.1
		c-0.1,0.1-0.1,0.1-0.2,0.3c-0.1,0.2-0.1,0.3-0.1,0.3c0.1,0,0.1,0,0.4,0c0.7,0,1.4-0.1,1.8-0.2l0,1.1c-0.2,0-0.4,0-0.6,0.1
		c-0.5,0.1-1.4,0.1-2.1,0.1c-0.1,0.2-0.2,0.3-0.3,0.5c0.3-0.1,0.6-0.2,0.9-0.2c0.6,0,1,0.2,1.1,0.7c0.1,0,0.1,0,0.5-0.2
		c0,0,0.2-0.1,0.4-0.1c0.4-0.1,0.5-0.2,0.6-0.2l0.4,1.1c-0.4,0-1.1,0.3-1.8,0.5c0,0.2,0,0.2,0,0.5c0,0.3,0,0.4,0,0.6l-1.2,0
		c0-0.1,0-0.3,0-0.8l-0.1,0C8,89,7.9,89.1,7.8,89.2c-0.1,0.1-0.2,0.2-0.2,0.4c0,0.3,0.3,0.4,1,0.4c0.9,0,1.7-0.1,2.3-0.4l0.1,1.3
		c-0.2,0-0.2,0-0.6,0.1C9.7,91,9.1,91,8.6,91c-0.8,0-1.3-0.1-1.7-0.3c-0.4-0.2-0.6-0.6-0.6-1c0-0.3,0.1-0.6,0.4-0.9
		c0.3-0.3,0.6-0.5,1-0.8c0.2-0.1,0.2-0.1,0.5-0.2c-0.1-0.1-0.2-0.2-0.3-0.2c-0.4,0-0.9,0.3-1.4,0.7c-0.3,0.3-0.5,0.5-0.7,0.7L5,88.1
		c0.2-0.2,0.5-0.5,0.8-0.7c0.2-0.2,0.4-0.6,0.6-0.8c0.1-0.2,0.1-0.2,0.1-0.2c-0.1,0-0.2,0-0.2,0c-0.3,0-0.3,0-0.6,0
		c-0.1,0-0.2,0-0.3,0c0,0-0.1,0-0.1,0L5.2,85.2z"/>
	<path fill="#DA2327" d="M8.5,97h-1c-0.1,0-0.2,0-0.3,0H7c-0.1,0-0.1,0-0.2,0v-0.8c0.2,0,0.4,0,0.7,0h1V96H7.5c-0.2,0-0.4,0-0.6,0
		v-0.8c0.2,0,0.4,0,0.6,0h0.9V95h-1c-0.4,0-0.5,0-0.7,0v-0.8c0.2,0,0.3,0,0.7,0h0.1c0-0.1-0.1-0.2-0.2-0.3H7.3c-0.4,0-0.5,0-0.7,0
		v-0.7L6,93.9c-0.4-0.6-0.7-0.8-1.3-1.3l0.8-0.8c0.6,0.5,0.9,0.8,1.3,1.3l-0.1,0.1c0.1,0,0.3,0,0.6,0h1.2v-0.2h-1
		c-0.3,0-0.4,0-0.6,0v-0.8c0.2,0,0.4,0,0.7,0h0.9c0-0.2,0-0.3,0-0.4h1.1c0,0.1,0,0.2,0,0.4h0.9c0.3,0,0.5,0,0.7,0v0.8
		c-0.2,0-0.3,0-0.6,0H9.5v0.2h1.2c0.4,0,0.5,0,0.7,0v0.8c-0.2,0-0.3,0-0.7,0h-0.2c0,0.1-0.1,0.2-0.2,0.3h0.2c0.4,0,0.5,0,0.7,0v0.8
		c-0.2,0-0.3,0-0.7,0H9.5v0.2h1c0.2,0,0.4,0,0.6,0V96c-0.2,0-0.4,0-0.6,0h-1v0.2h1.1c0.3,0,0.5,0,0.7,0V97c-0.2,0-0.4,0-0.7,0H9.5
		v0.3c0.2,0,0.4,0,0.5,0c0.8,0,0.9,0,1.6-0.1c-0.2,0.4-0.2,0.7-0.3,1.1c-0.6,0-1.6,0-2.6,0c-1.7,0-2.2-0.1-2.7-0.7
		c-0.4,0.3-0.4,0.3-1,0.7l-0.5-1.2c0.2-0.1,0.6-0.3,0.9-0.5v-1.4H5.2c-0.2,0-0.2,0-0.4,0v-1.1c0.2,0,0.3,0,0.6,0h0.7
		c0.2,0,0.4,0,0.6,0c0,0.2,0,0.4,0,0.8v1.7c0.1,0.2,0.3,0.3,0.6,0.4c0.2,0.1,0.7,0.1,1.3,0.1V97z M8.5,93.9c0.1,0.1,0.1,0.2,0.2,0.3
		h0.7c0.1-0.1,0.1-0.2,0.1-0.3H8.5z"/>
	<path fill="#DA2327" d="M11.2,101.7c0,0.1-0.1,0.1-0.1,0.3c-0.3,0.6-0.6,1.3-1,1.8c0.2,0.3,0.3,0.5,0.5,0.7
		c0.1-0.2,0.1-0.4,0.2-0.9c0.3,0.3,0.5,0.4,0.8,0.6c-0.2,1.1-0.5,1.5-0.9,1.5c-0.4,0-0.9-0.4-1.3-1.1c-0.4,0.4-0.8,0.7-1.4,1.1
		c-0.2-0.4-0.3-0.6-0.5-0.9c-0.2,0.1-0.5,0.1-0.7,0.1c-0.1,0-0.1,0-0.3,0c0-0.3-0.1-0.5-0.2-0.8c-0.1,0.7-0.3,1.2-0.7,1.7
		c-0.3-0.4-0.5-0.6-0.9-0.9c0.3-0.4,0.4-0.7,0.5-1.2c0.1-0.6,0.2-1.6,0.2-2.9c0-0.4,0-0.7,0-0.9c0.3,0,0.6,0,1,0h2
		c0-0.6,0-0.7,0-0.9h1.2c0,0.1,0,0.3,0,0.5v0.3h0.7c-0.3-0.2-0.4-0.3-0.6-0.4l0.7-0.6c0.4,0.2,0.6,0.4,0.9,0.7l-0.4,0.4
		c0.4,0,0.5,0,0.7,0v1.1c-0.3,0-0.6,0-0.9,0H9.4c0,0.6,0.1,1.2,0.2,1.7c0.3-0.5,0.4-0.9,0.5-1.3L11.2,101.7z M6.4,102.7
		c0,0.5-0.1,0.8-0.1,1.2c0.2,0,0.3,0,0.4,0c0.2,0,0.2,0,0.3-0.1c0.1-0.1,0.1-0.4,0.1-1.1H6.4z M7.7,101.7c0.3,0,0.3,0,0.5,0
		c0,0.2,0,0.2-0.1,1.3c0,0.7-0.1,1.2-0.2,1.5c0.4-0.2,0.7-0.5,1-0.8c-0.3-0.8-0.4-1.5-0.5-2.7H6.4c0,0.4,0,0.5,0,0.7H7.7z"/>
	<path fill="#DA2327" d="M7.2,106.4c-0.1,0.5-0.2,2.4-0.2,3.6c0,0.7,0,0.9,0.2,1.1c0.1,0.2,0.4,0.3,0.8,0.3c0.7,0,1.3-0.4,1.6-1.2
		c0.1-0.4,0.2-0.8,0.3-1.3c0.5,0.4,0.8,0.6,1.2,0.8c-0.3,1.1-0.5,1.6-0.9,2c-0.6,0.6-1.3,0.9-2.2,0.9c-0.7,0-1.3-0.2-1.7-0.5
		c-0.4-0.4-0.5-0.9-0.5-1.9c0-0.2,0-0.2,0-1.6c0-0.7,0-1.4,0-1.7c0-0.2,0-0.3,0-0.5L7.2,106.4z"/>
	<path fill="#DA2327" d="M5.3,114.2c0.4,0.1,1.2,0.2,2.1,0.2c0.1,0,0.2,0,0.4,0c0-0.5,0-0.6,0-0.8H9c0,0.2,0,0.2-0.1,0.7
		c1-0.1,1.6-0.1,2-0.3l0,1.1c-0.2,0-0.3,0-0.6,0.1c-0.5,0.1-0.9,0.1-1.4,0.1c0,0.2,0,0.2,0,0.5c0.8,0,1.4-0.1,1.8-0.2l0,1.1
		c-0.2,0-0.2,0-0.5,0c-0.3,0-1,0.1-1.4,0.1c0,0.3,0,0.3,0,0.6c0.4,0.1,0.6,0.2,1,0.4c0.4,0.2,0.5,0.2,1,0.6c0.1,0.1,0.2,0.1,0.3,0.2
		l-0.7,1.2c-0.2-0.2-0.2-0.2-0.5-0.5c-0.3-0.3-0.7-0.5-1-0.6c0,0.3,0,0.5-0.2,0.7c-0.2,0.4-0.8,0.6-1.6,0.6c-1.2,0-1.8-0.5-1.8-1.3
		c0-0.5,0.3-1,0.9-1.2c0.3-0.1,0.8-0.2,1.3-0.2c0.1,0,0.1,0,0.2,0c0-0.2,0-0.4,0-0.4c-0.2,0-0.4,0-0.6,0c-0.4,0-0.7,0-1.2,0
		c-0.3,0-0.4,0-0.6,0l0-1.1c0.3,0.1,1,0.1,1.8,0.1c0.2,0,0.3,0,0.5,0c0-0.1,0-0.1,0-0.1c0,0,0,0,0-0.2c0-0.1,0-0.1,0-0.2
		c-0.2,0-0.2,0-0.3,0c-0.4,0-0.5,0-1.3,0c-0.3,0-0.3,0-0.5,0c-0.1,0-0.2,0-0.2,0c0,0-0.1,0-0.1,0L5.3,114.2z M7.4,118.3
		c-0.4,0-0.7,0.1-0.7,0.3c0,0.2,0.2,0.3,0.6,0.3c0.4,0,0.6-0.1,0.6-0.5c0,0,0-0.1,0-0.1C7.6,118.3,7.5,118.3,7.4,118.3z"/>
	<path fill="#DA2327" d="M4.9,121.6c0.2,0,0.3,0,0.4,0c0.2,0,2.1-0.1,2.8-0.1c0-0.5,0-0.6-0.1-0.8h1.3c0,0.3,0,0.3,0,0.7
		c1.2,0,1.7,0,2-0.1l0,1.2c-0.3,0-0.5,0-1.3,0c-0.4,0-0.4,0-0.7,0v0.9c0,0,0,0.1,0,0.2c0.2,0.4,0.3,0.7,0.3,1.2c0,0.8-0.4,1.5-1.2,2
		c-0.4,0.2-0.8,0.4-1.4,0.6c-0.2-0.5-0.4-0.8-0.7-1.1c0.7-0.1,1.1-0.2,1.5-0.4c0.3-0.2,0.4-0.3,0.5-0.6c-0.3,0.3-0.5,0.3-1,0.3
		c-0.8,0-1.4-0.5-1.4-1.3c0-0.8,0.7-1.4,1.7-1.4c0.2,0,0.4,0,0.6,0.1c0-0.1,0-0.1,0-0.2c0-0.1,0-0.1,0-0.2c-1.5,0-2.6,0.1-3.2,0.2
		L4.9,121.6z M7.2,124.2c0,0.2,0.2,0.4,0.5,0.4c0.3,0,0.5-0.2,0.5-0.4c0-0.2-0.2-0.4-0.5-0.4C7.4,123.8,7.2,124,7.2,124.2z"/>
</g>
<path id="lowerstick" fill="#DA2327" d="M119,59.4c0,0-1,0.5-1.5-1l50.9-40.1c0,0,4.1,1.7,1.3,4.4L119,59.4z"/>
<path id="upperstick" fill="#DA2327" d="M112.7,52.2c0,0-0.6,1,0.9,1.6l44-47.5c0,0-1.4-4.2-4.2-1.6L112.7,52.2z"/>
<path id="wing--right" fill="#DA2327" d="M79.3,98.3C79.3,98.3,79.3,98.3,79.3,98.3c-0.7,0-1.4-0.3-1.9-0.8
	c-0.7-0.7-0.9-1.7-0.7-2.7c0.9-4.9,7.2-11,7.5-11.3c0,0,0.1-0.1,0.1-0.1c0.9-0.8,2.1-1.3,3.3-1.3c1.4,0,2.6,0.5,3.6,1.5
	c1.9,1.9,2,4.9,0.2,6.9c0,0,0,0,0,0c0,0,0,0-0.1,0.1c0,0-0.1,0.1-0.1,0.1c0,0-0.1,0.1-0.1,0.1l0,0c-1.6,1.5-6.9,6.5-11.2,7.2
	C79.7,98.3,79.5,98.3,79.3,98.3z M85.5,84.9c-0.7,0.7-6.1,6.2-6.9,10.3c0,0,0,0.1,0,0.1c-0.1,0.3,0,0.6,0.2,0.8
	c0.2,0.2,0.4,0.2,0.6,0.2c0,0,0,0,0,0c0.1,0,0.1,0,0.2,0c0,0,0.1,0,0.1,0c3-0.5,7.2-3.8,10.2-6.7c0,0,0,0,0,0l0.1-0.1
	c0,0,0,0,0.1-0.1c0,0,0,0,0,0c0,0,0,0,0,0c1.2-1.3,1.1-3.2-0.1-4.4c-0.6-0.6-1.4-1-2.3-1C86.8,84,86.1,84.3,85.5,84.9
	C85.5,84.9,85.5,84.9,85.5,84.9z"/>
<path id="wing--left" fill="#DA2327" d="M79.5,98.3L79.5,98.3c-0.3,0-0.5,0-0.8-0.1c-4.9-0.9-11-7.2-11.3-7.5c0,0-0.1-0.1-0.1-0.1
	c-1.8-2-1.7-5,0.2-6.9c1-1,2.2-1.5,3.6-1.5c1.2,0,2.4,0.5,3.4,1.3c0,0,0,0,0,0c0,0,0,0,0.1,0.1c0,0,0.1,0.1,0.1,0.1
	c0,0,0.1,0.1,0.1,0.1l0,0c1.5,1.6,6.5,6.9,7.2,11.2c0.2,0.9-0.1,1.8-0.7,2.5C80.9,98,80.3,98.3,79.5,98.3z M68.9,89.5
	c0.7,0.7,6.2,6.1,10.3,6.9c0,0,0.1,0,0.1,0c0.1,0,0.2,0,0.3,0l0,0c0.1,0,0.4,0,0.6-0.2c0.2-0.2,0.3-0.5,0.2-0.8c0,0,0-0.1,0-0.1
	c-0.5-3-3.8-7.2-6.7-10.2c0,0,0,0,0,0L73.5,85c0,0,0,0-0.1-0.1c0,0,0,0,0,0c0,0,0,0,0,0c-0.6-0.5-1.4-0.8-2.2-0.8
	c-0.8,0-1.6,0.3-2.2,0.9C67.7,86.2,67.7,88.2,68.9,89.5C68.9,89.4,68.9,89.5,68.9,89.5z"/>
</svg>
