<?xml version="1.0" encoding="utf-8"?>
<!-- Generator: Adobe Illustrator 18.1.1, SVG Export Plug-In . SVG Version: 6.00 Build 0)  -->
<svg version="1.1" id="Layer_1" xmlns="http://www.w3.org/2000/svg" xmlns:xlink="http://www.w3.org/1999/xlink" x="0px" y="0px"
	 viewBox="0 0 561.6 406.2" enable-background="new 0 0 561.6 406.2" xml:space="preserve">
<g>
	
		<circle fill="none" stroke="#DA2327" stroke-width="6" stroke-linecap="round" stroke-miterlimit="10" stroke-dasharray="38.5426,36.4592" cx="261" cy="279.9" r="107.4"/>
</g>
<path fill="#DA2327" d="M260.6,310c-1.3,0-2.5-0.3-3.6-0.8c-15.6-4.2-34.3-23.2-35.1-24c-0.1-0.1-0.2-0.2-0.3-0.3
	c-5.8-6.4-5.5-16.1,0.8-22.3c3.1-3.1,7.1-4.8,11.5-4.8c4,0,7.9,1.5,10.9,4.1c0,0,0,0,0.1,0c0,0,0,0,0.3,0.3c0.2,0.1,0.3,0.2,0.4,0.4
	c0.1,0.1,0.3,0.3,0.4,0.4l0.1,0.1c2.9,2.9,9.5,9.9,15.1,18c7-10.2,15.6-18.6,16-19c0.1-0.1,0.2-0.2,0.3-0.3c3-2.7,6.7-4.1,10.7-4.1
	c4.4,0,8.5,1.7,11.6,4.9c6,6,6.3,15.9,0.6,22.4c0,0,0,0,0,0.1c0,0,0,0-0.3,0.3c-0.1,0.2-0.2,0.3-0.4,0.4c-0.1,0.1-0.3,0.3-0.4,0.4
	l-0.1,0.1c-4.7,4.7-20.9,19.8-34.5,23.2c-1,0.4-2.1,0.6-3.2,0.6c0,0-0.1,0-0.1,0C261,310,260.8,310,260.6,310z M259,304
	c0.4,0.1,0.7,0.2,1.1,0.2c0.1,0,0.2,0,0.3,0.1c0.2,0.1,0.5,0.1,0.7,0.1c0.1,0,0.1,0,0.2,0c0.1,0,0.1,0,0.2,0
	c0.4-0.1,0.9-0.2,1.3-0.3c0.2-0.1,0.5-0.3,0.7-0.5c0.8-0.8,1.1-1.8,0.8-2.8c0-0.1,0-0.1,0-0.2c-0.4-2.6-1.5-5.6-3.2-9
	c-1.7,3.2-2.7,6.1-3.2,8.6c0,0.1,0,0.2-0.1,0.3c-0.3,1.1-0.1,2.3,0.7,3.1C258.6,303.8,258.8,303.9,259,304z M269.7,299.6
	c0.1,0.6,0.2,1.2,0.2,1.8c8.6-4.3,18.3-12.2,25.4-19.3c0,0,0,0,0.1-0.1c0.1-0.1,0.1-0.1,0.2-0.2c0,0,0.1-0.1,0.1-0.1
	c0.1-0.1,0.1-0.2,0.2-0.3c0,0,0,0,0,0c0,0,0.1-0.1,0.1-0.1c3.9-4.5,3.8-10.9-0.3-15c-2.1-2.1-4.9-3.3-7.8-3.3c-2.7,0-5.2,1-7.2,2.9
	c-0.1,0.1-0.1,0.1-0.2,0.2c-1.5,1.5-10.1,10.2-16.3,20C267.2,291.1,269,295.7,269.7,299.6z M226,281.5c1.8,1.8,14.3,14,26.1,19.9
	c0-0.8,0.1-1.6,0.3-2.4c0.7-3.8,2.5-8.2,5.3-13c-5.5-8.5-12.8-16.2-15.8-19.3c0,0,0,0-0.1-0.1l-0.2-0.2c0,0-0.1-0.1-0.1-0.1
	c-0.1-0.1-0.2-0.1-0.3-0.2c0,0,0,0,0,0c0,0-0.1-0.1-0.1-0.1c-2.1-1.8-4.7-2.8-7.4-2.8c-2.9,0-5.6,1.1-7.6,3.2
	c-4.2,4.2-4.4,10.8-0.4,15C225.9,281.4,225.9,281.4,226,281.5z"/>
<g>
	<path fill="#DA2327" d="M68,181.7c1.3,0,2.1,0,3-0.1v3c-0.9-0.1-1.7-0.1-3-0.1h-5.6c-0.6,0.3-0.8,0.4-1.6,0.8c0.6,0,1.3,0,2.1,0
		h3.5c1.2,0,1.7,0,2.1-0.1c-0.1,0.5-0.1,1.1-0.1,2.2v3.9c0,1.3,0,2,0.1,2.6H65v-0.8h-7.8v0.8h-3.6c0.1-0.7,0.1-1.4,0.1-2.6v-2.5
		c-0.7,0.3-1.6,0.6-2.7,0.9c-0.6-1.2-0.9-1.8-1.7-2.8c3-0.7,5.1-1.4,7.8-2.6h-4.4c-1.3,0-2.1,0-2.9,0.1v-3c0.8,0.1,1.6,0.1,2.9,0.1
		h4.6V181h-3.1c-1.1,0-1.7,0-2.3,0.1v-2.6l-0.3,0.3c-0.8-1.1-1.3-1.6-2.3-2.4c1.8-1.2,2.9-2.7,3.4-4.2l3.4,0.5l-0.4,0.9h2.5
		c1.1,0,1.7,0,2.2-0.1v1.6c0.8-1,1.2-1.7,1.4-2.9l3.5,0.5c-0.2,0.4-0.2,0.6-0.4,0.9h3.5c1.3,0,1.8,0,2.6-0.1v3.2
		c-0.7-0.1-1.3-0.1-2.4-0.1h-1.1c0.3,0.5,0.4,0.6,0.7,1.2l-0.9,0.1l2.6,1.4c-0.7,0.6-0.8,0.7-1.1,1c-1.1,1-1.2,1.1-2,1.7H68z
		 M53.9,176.3c-0.8,1-1.2,1.4-2,2.1c0.6,0.1,1.1,0.1,2.3,0.1h3.1c0-0.4,0-0.5,0-0.7l-2,0.3c-0.3-0.8-0.4-1.1-0.8-1.9H53.9z
		 M57.2,188.1H65v-0.7h-7.8V188.1z M57.2,190.8H65V190h-7.8V190.8z M64.2,180.1c1-0.9,1.7-1.5,2.3-2.3l-1.7,0.3
		c-0.3-0.6-0.4-0.9-0.9-1.7h-0.7c-0.5,0.7-0.8,1-1.5,1.7c-0.8-0.8-1.4-1.2-2.3-1.7c-0.2,0-0.2,0-0.4,0h-1.2c0.3,0.5,0.4,0.6,0.6,1
		h2.3c-0.1,0.4-0.1,0.6-0.1,1.2h1.5c1.1,0,1.5,0,2.1-0.1V180.1z M62,181.7c0.5-0.3,0.7-0.5,1.1-0.8c-0.5,0-0.6,0-1,0h-1.5v0.8H62z"
		/>
	<path fill="#DA2327" d="M50.2,198c0.4,0,0.7,0,0.9,0c0.6,0,1.4,0,3.9-0.2c3.6-0.2,5.3-0.3,12.3-0.6c1.9-0.1,2.1-0.1,2.5-0.2
		l0.2,4.2c-0.3,0-0.4,0-0.6,0c-1.6,0-3.7,0.6-5.3,1.6c-2.3,1.4-3.7,3.4-3.7,5.2c0,1.3,0.6,2.2,1.9,2.8c0.9,0.5,2.9,0.8,4.4,0.8
		c0.2,0,0.4,0,0.7,0l-0.5,4.4c-0.3,0-0.4-0.1-0.9-0.1c-2.6-0.2-4.3-0.6-5.8-1.3c-2.7-1.3-4.1-3.4-4.1-6.3c0-1.9,0.6-3.6,2-5.2
		c0.6-0.7,1.1-1.2,2.3-2l-8,0.7c-0.9,0.1-1.1,0.1-2,0.3L50.2,198z M66.1,206.7c-0.5-1.3-1-2.1-1.7-3.2l2.2-0.9
		c0.8,1,1.2,1.8,1.8,3.1L66.1,206.7z M69,205.4c-0.5-1.2-1-2-1.7-3.1l2.2-0.9c0.8,1,1.2,1.7,1.8,3L69,205.4z"/>
	<path fill="#DA2327" d="M58.9,220.1c-0.1,0.3-0.1,0.4-0.2,1c0,0,0,0.2-0.1,0.5c0,0.1,0,0.3-0.1,0.5c-0.5,3.4-0.9,5.5-1.6,7.7
		c-1,3.2-2.1,5.3-4.1,7.8c-1.2-1.2-2.3-1.9-3.7-2.7c1.5-1.6,2.3-3,3.3-5.2c1.3-3.1,2.1-7.2,2.1-10.4L58.9,220.1z M65.6,219.3
		c0,1.1,0.4,3.3,0.8,5.1c0.6,2.3,1.4,4.6,2.3,6.4c0.7,1.4,1.4,2.4,2.7,4c-1.6,1-2.4,1.6-3.6,2.9c-1.8-2.4-2.9-4.6-4-7.5
		c-0.9-2.5-1.6-5.4-2-8.3c-0.1-0.9-0.2-1.5-0.3-1.8L65.6,219.3z"/>
	<path fill="#DA2327" d="M62.3,254.5h4.5c2,0,2.8,0,3.8-0.2v4c-0.9-0.1-2-0.1-3.7-0.1h-13c-2.1,0-2.7,0-3.7,0.1v-4
		c1.1,0.1,1.9,0.2,3.8,0.2h4.2v-8.7h-2.5c-2.2,0-2.7,0-3.7,0.1v-4c1.2,0.2,1.9,0.2,3.8,0.2H65c1.9,0,2.7,0,3.8-0.2v4
		c-1.1-0.1-1.6-0.1-3.7-0.1h-2.8V254.5z"/>
	<path fill="#DA2327" d="M51,264.5c1,0.2,2.4,0.3,4.8,0.3c0.1,0,0.4,0,0.6,0c0.5-1.1,0.6-1.7,0.7-2.6l4.2,0.3
		c-0.2,0.3-0.2,0.4-0.5,1.1c-0.3,0.7-0.4,1-0.5,1.1c0.2,0,0.2,0,1.4-0.1c2.3-0.1,4.6-0.4,5.8-0.7l0.1,3.7c-0.7,0.1-1.4,0.1-2.1,0.2
		c-1.6,0.2-4.5,0.3-6.9,0.4c-0.4,0.7-0.6,1-1.1,1.7c1-0.5,1.9-0.7,2.9-0.7c1.9,0,3.1,0.7,3.5,2.2c0.4-0.1,0.4-0.1,1.6-0.6
		c0.1,0,0.7-0.2,1.4-0.5c1.3-0.4,1.5-0.5,1.8-0.7l1.4,3.6c-1.2,0.2-3.7,0.8-5.9,1.6c0,0.6,0,0.6,0,1.7c0,1,0,1.4,0.1,2l-3.7,0.1
		c0.1-0.3,0.1-1.1,0.1-2.4l-0.2,0.1c-1.1,0.5-1.2,0.6-1.6,1c-0.4,0.3-0.6,0.8-0.6,1.2c0,0.9,0.9,1.2,3.1,1.2c2.8,0,5.4-0.4,7.4-1.1
		l0.3,4.1c-0.7,0-0.7,0-2,0.2c-1.8,0.2-3.7,0.3-5.5,0.3c-2.6,0-4.2-0.3-5.5-1.1c-1.1-0.7-1.8-1.9-1.8-3.3c0-1.1,0.3-2,1.1-2.9
		c0.9-1,1.9-1.7,3.3-2.5c0.6-0.3,0.8-0.4,1.7-0.8c-0.2-0.4-0.5-0.6-0.9-0.6c-1.2,0-2.8,0.8-4.4,2.2c-1,0.9-1.6,1.5-2.2,2.3l-2.9-2.9
		c0.7-0.6,1.7-1.5,2.4-2.4c0.5-0.6,1.4-2,1.8-2.5c0.3-0.6,0.3-0.6,0.4-0.7c-0.3,0-0.6,0-0.7,0c-1,0-1,0-2,0c-0.3,0-0.5,0-0.8,0
		c0,0-0.2,0-0.3,0L51,264.5z"/>
	<path fill="#DA2327" d="M60.4,304.6c0,1.5,0,2.1,0.1,2.7h-3.5c0.1-0.8,0.1-1.4,0.1-2.7v-10.1c0-0.2,0-0.3,0-1.7c-0.4,0-0.6,0-0.9,0
		h-0.4v2.6c0.4-0.1,0.5-0.1,0.9-0.3v3.1c-0.4,0.1-0.6,0.2-0.9,0.3v5.8c0,1.1-0.2,1.7-0.6,2.1c-0.6,0.5-1.4,0.7-2.7,0.7
		c-0.6,0-1,0-2-0.1c-0.1-1.3-0.3-2.2-0.7-3.3c0.8,0.1,1.3,0.2,1.9,0.2c0.6,0,0.7-0.1,0.7-0.7v-3.8c-1.7,0.5-1.7,0.5-2.1,0.6
		l-0.6-3.6c0.6,0,0.6,0,2.7-0.4v-3.3h-0.8c-0.6,0-1,0-1.6,0.1v-3.4c0.6,0.1,1,0.1,1.7,0.1h0.8V288c0-1.2,0-1.7-0.1-2.3h3.7
		c-0.1,0.7-0.1,1.2-0.1,2.3v1.6h0.4c0.3,0,0.4,0,0.6,0v-1.8c0.7,0.1,1.2,0.1,2.3,0.1h3v-0.4c0-0.9,0-1.3-0.1-1.8h3.6
		c-0.1,0.5-0.1,0.9-0.1,1.8v0.4h1.6c-0.3-0.6-0.4-0.8-0.8-1.4l2.7-0.9c0.5,0.7,0.8,1.3,1.3,2.2c0.3,0,0.5,0,0.9-0.1v3.4
		c-0.6-0.1-1.1-0.1-2-0.1h-3.7v1h3.3c1.1,0,1.4,0,2-0.1c-0.1,0.7-0.1,1.1-0.1,2.5v10.2c0,1.9-0.6,2.4-3.2,2.4c-0.2,0-0.2,0-1.1,0
		c0-1.4-0.2-1.9-0.7-3c0.4,0,0.9,0.1,1.2,0.1c0.4,0,0.5-0.1,0.5-0.5v-1h-1.9v2.2c0,1.2,0,1.6,0.1,2.2H62c0-0.6,0.1-1.1,0.1-2.2v-2.3
		h-1.7V304.6z M57.1,292c0.7,0,1,0,2.3,0h2.7v-1h-3.4c-0.7,0-1.2,0-1.6,0.1V292z M62.1,296v-1.1h-1.7v1.1H62.1z M62.1,299.8v-1.1
		h-1.7v1.1H62.1z M67.3,296v-1.1h-1.9v1.1H67.3z M67.3,299.8v-1.1h-1.9v1.1H67.3z"/>
	<path fill="#DA2327" d="M56.9,314c-0.3,1.2-0.7,3.4-1,5.6c1.9-1.2,4-1.8,6.6-1.8c4.1,0,6.8,2.1,6.8,5.4c0,2-0.9,3.7-2.6,4.9
		s-3.7,1.7-6.6,1.7c-1.9,0-3.5-0.2-5.8-0.7c-0.1-1.9-0.2-2.6-0.5-4.1c2.3,0.7,4.4,1.1,6.1,1.1c3,0,5.1-1.1,5.1-2.7
		c0-1.2-1.2-1.9-3.3-1.9c-1.7,0-3.5,0.5-5,1.4c-0.6,0.3-0.8,0.5-1.3,1l-3.8-0.2c0-0.2,0-0.2,0.1-0.5c0.1-1.1,0.6-4.8,1.1-8
		c0.1-0.5,0.1-0.9,0.1-1.5L56.9,314z M56.5,309c1.1,0.6,2.5,1.1,4.7,1.6c1.6,0.4,3.5,0.8,4.6,1l-1.2,3.7c-4.2-0.9-7.2-1.8-9.9-3
		L56.5,309z"/>
	<path fill="#DA2327" d="M52.2,338.5c0.6,0,0.9,0.1,1.4,0.1c2.4,0,5.2-0.2,8.6-0.5c1.2-0.1,1.7-0.2,2.1-0.4l2.1,2.7
		c-0.4,0.3-0.8,0.6-1.9,1.6c-0.9,0.8-3.1,2.7-3.6,3.1c0.4-0.1,0.6-0.2,0.9-0.2c0.9,0,1.5,0.3,1.9,0.9c0.4,0.6,0.5,0.8,0.6,2.5
		c0.1,1.1,0.4,1.5,1.3,1.5c1.6,0,3.6-0.4,4.8-0.9l0.4,4c-0.8,0-0.8,0-2.2,0.2c-1.5,0.2-2.3,0.3-3.5,0.3c-2,0-3.2-0.4-3.9-1.5
		c-0.4-0.6-0.5-1-0.5-2.4c0-0.9-0.1-1.2-0.3-1.5c-0.2-0.2-0.4-0.3-0.8-0.3c-0.9,0-1.9,0.7-3.7,2.5c-1.1,1.1-2.2,2.3-3,3.3l-3-3.4
		c1.4-0.9,4-3.1,7.9-6.7c1-1,1.3-1.2,2.1-1.9c-1.3,0.2-2.5,0.3-5.6,0.6c-0.8,0.1-1.3,0.1-1.9,0.2L52.2,338.5z M55.2,332.3
		c2.5,0.7,5.9,1.1,10,1.1l-0.6,3.6c-5.2-0.2-7.4-0.4-10.5-1.2L55.2,332.3z"/>
	<path fill="#DA2327" d="M53,356.8c1,0.1,1.8,0.2,3.3,0.2c2,0,4.6-0.1,6.9-0.3c1-0.1,1.3-0.1,1.7-0.3l1.9,2.8
		c-0.6,0.3-0.6,0.3-3.7,3c-1.2,1-1.6,1.4-3.2,2.5c1.3-0.3,2-0.4,3.2-0.4c2.2,0,3.7,0.5,4.9,1.6c1.1,1,1.7,2.3,1.7,4
		c0,2.3-1.1,4.2-3.2,5.4c-1.6,0.9-3.8,1.4-6.1,1.4c-3.9,0-6.3-1.5-6.3-4.1c0-2.1,1.9-3.7,4.6-3.7c1.7,0,3.1,0.6,4.1,1.8
		c0.5,0.5,0.7,1,1.1,1.8c1.2-0.6,1.8-1.3,1.8-2.5c0-1.6-1.6-2.6-4.1-2.6c-2.4,0-5,0.8-7.1,2.1c-0.7,0.5-1.4,1-2.2,1.7l-2.1-3.5
		c2.1-1,7-4.8,9.8-7.6c-1.2,0.1-2.1,0.2-5.4,0.3c-0.6,0-1.1,0.1-1.5,0.1L53,356.8z M58.7,371.8c-0.5,0-0.9,0.3-0.9,0.8
		c0,0.6,0.7,1,2,1c0.3,0,0.3,0,0.8-0.1C60.2,372.4,59.6,371.8,58.7,371.8z"/>
	<path fill="#DA2327" d="M26,183.2c-1,0-1.8,0-2.3,0.1c0.1-0.7,0.1-1.4,0.1-2.3v-5.6c0-1.2,0-1.9-0.1-2.6c0.7,0.1,1.3,0.1,2.6,0.1
		h12.6c1.3,0,1.9,0,2.6-0.1c-0.1,0.7-0.1,1.3-0.1,2.6v5.5c0,1.1,0,1.6,0.1,2.4c-0.7,0-1.5-0.1-2.2-0.1h-5.4
		c-0.1,0.6-0.1,0.8-0.2,1.3h5.8c1,0,1.8,0,2.6-0.1c-0.1,0.6-0.1,0.6-0.2,1.7c-0.2,2.7-0.5,4.6-0.9,5.5c-0.6,1.4-1.8,2-4.6,2
		c-0.5,0-1.4,0-2.4-0.1c-0.2-1.2-0.3-2-0.9-3.4c1.3,0.1,2.7,0.2,3.5,0.2c1.1,0,1.3-0.3,1.5-2.8h-5.5c-0.7,1.5-1.9,2.9-3.3,3.9
		c-1.6,1.1-3.2,1.8-5.8,2.5c-0.6-1.4-1.1-2.1-2-3.2c3.8-0.6,5.7-1.5,7-3.2h-3.4c-1.1,0-2,0-2.9,0.1v-3.4c0.7,0.1,1.7,0.1,3,0.1h4.7
		c0.1-0.6,0.1-0.8,0.2-1.3H26z M27.2,175.8v1.1h3.6v-1.1H27.2z M27.2,179.3v1.1h3.6v-1.1H27.2z M37.9,176.8v-1.1h-3.8v1.1H37.9z
		 M37.9,180.5v-1.1h-3.8v1.1H37.9z"/>
	<path fill="#DA2327" d="M21.7,201.5c0.1,0,0.2,0,0.2,0c0.7,0,2.9-0.2,4.4-0.4c0.4-2.4,0.5-3.7,0.5-4.5c0-0.1,0-0.2,0-0.4l4.2,0.4
		c-0.1,0.5-0.1,0.5-0.4,1.8c-0.2,1.1-0.3,1.9-0.4,2.5c0.4,0,0.7,0,1,0c1.4,0,2.5,0.3,3.3,0.9c1.2,0.9,1.6,2.3,1.6,4.9
		c0,3.6-0.5,6.6-1.4,8.2c-0.3,0.6-0.9,1.1-1.5,1.4c-0.5,0.2-1.1,0.3-1.8,0.3c-1.1,0-2.1-0.2-3.7-0.6c0.1-0.7,0.1-0.9,0.1-1.3
		c0-1-0.1-1.6-0.3-2.8c1.3,0.5,2.5,0.8,3.2,0.8c0.5,0,0.8-0.3,1-1c0.3-1,0.6-3.3,0.6-5.1c0-1-0.1-1.5-0.4-1.8
		c-0.3-0.3-0.6-0.4-1.4-0.4c-0.2,0-0.4,0-0.9,0c-0.4,1.9-0.9,3.6-1.6,5.7c-0.7,2.1-1.1,3-2.4,5.9c-0.2,0.4-0.2,0.5-0.4,0.9l-3.8-2
		c1.5-2,3.4-6.5,4.3-10.2c-1.7,0.2-2.8,0.4-3.6,0.7L21.7,201.5z M37.1,197.2c0.9,1.1,1.4,1.8,2,3l-2.3,1.1c-0.7-1.4-1.2-2.1-2-3.1
		L37.1,197.2z M39.9,200.5c1.7,2.4,2.8,5.1,3.6,8.3l-3.8,1.8c-0.3-1.8-0.8-3.3-1.5-5.1c-0.6-1.4-1-2.3-1.7-3.4L39.9,200.5z M40,196
		c0.8,0.9,1.5,1.9,2,2.9l-2.2,1.1c-0.6-1.1-1.2-2-2-3L40,196z"/>
	<path fill="#DA2327" d="M29,220.7c-0.3,1-0.6,1.7-1.7,4.2v12.6c0,1.3,0,2.2,0.1,3.1h-3.7c0.1-1,0.1-1.9,0.1-3.1v-5.3
		c0-1.2,0-1.4,0-2.3c-0.4,0.6-0.9,1.1-1.3,1.7c-0.5-1.8-0.7-2.6-1.5-4c1.4-1.4,2.4-2.9,3.3-4.8c0.7-1.5,1.1-2.8,1.3-4l3.3,1.4v-0.4
		c0.9,0.1,1.7,0.1,2.9,0.1h8.3c1.1,0,2,0,2.9-0.1v3.4c-0.6-0.1-0.7-0.1-1.4-0.1v14.3c0,1.5-0.4,2.3-1.6,2.7
		c-0.6,0.2-1.8,0.3-3.6,0.3c0,0-0.4,0-1.5,0c-0.2-1.5-0.4-2.3-0.9-3.5c1.1,0.1,2.3,0.1,3,0.1c0.8,0,1-0.1,1-0.6V223H32
		c-1.3,0-2.3,0-2.9,0.1V220.7z M28.9,235.8c0.1-0.6,0.1-1.2,0.1-1.9v-7.5c0-0.7,0-1.2-0.1-1.8c0.5,0,1,0.1,1.7,0.1h4.8
		c0.9,0,1.1,0,1.6,0c0,0.5,0,0.8,0,1.7v6.3c0,1,0,1.3,0,1.8c-0.5,0-0.8,0-1.7,0h-3.1v1.4H28.9z M32.1,231.3h1.6v-3.5h-1.6V231.3z"/>
	<path fill="#DA2327" d="M21.8,247.6c0.1,0,0.2,0,0.2,0c0.7,0,2.9-0.2,4.4-0.4c0.4-2.4,0.5-3.8,0.5-4.6c0-0.1,0-0.2,0-0.4l4.2,0.4
		c-0.1,0.5-0.1,0.5-0.4,1.8c-0.2,1.1-0.3,1.9-0.4,2.5c0.4,0,0.7,0,1,0c1.4,0,2.5,0.3,3.3,0.9c1.2,0.9,1.6,2.3,1.6,4.9
		c0,3.6-0.5,6.6-1.4,8.2c-0.3,0.6-0.9,1.1-1.5,1.4c-0.5,0.2-1.1,0.3-1.8,0.3c-1.1,0-2.1-0.2-3.7-0.6c0.1-0.6,0.1-0.9,0.1-1.3
		c0-1-0.1-1.6-0.3-2.7c1.3,0.5,2.5,0.8,3.2,0.8c0.5,0,0.8-0.3,1-1c0.3-1,0.6-3.4,0.6-5.1c0-1-0.1-1.5-0.4-1.9
		c-0.3-0.3-0.6-0.4-1.4-0.4c-0.2,0-0.4,0-0.9,0c-0.4,1.9-0.9,3.6-1.6,5.7c-0.7,2.1-1.1,3.1-2.4,5.9c-0.2,0.4-0.2,0.5-0.4,0.8l-3.8-2
		c1.5-2,3.4-6.5,4.3-10.2c-1.6,0.2-2.8,0.4-3.6,0.6L21.8,247.6z M38.8,245.2c2.3,2.9,3.8,6,4.7,9.8l-3.8,1.8
		c-0.8-4.2-2.2-7.5-4.3-10L38.8,245.2z"/>
	<path fill="#DA2327" d="M23,267.5c1,0.2,2.4,0.3,4.8,0.3c0.1,0,0.4,0,0.6,0c0.5-1.1,0.6-1.7,0.7-2.6l4.2,0.3
		c-0.2,0.3-0.2,0.4-0.5,1.1c-0.3,0.7-0.4,1-0.5,1.1c0.2,0,0.2,0,1.4-0.1c2.3-0.1,4.6-0.4,5.8-0.7l0.1,3.7c-0.7,0.1-1.4,0.1-2.1,0.2
		c-1.6,0.2-4.5,0.3-6.9,0.4c-0.4,0.7-0.6,1-1.1,1.7c1-0.5,1.9-0.7,2.9-0.7c1.9,0,3.1,0.7,3.5,2.2c0.4-0.1,0.4-0.1,1.6-0.6
		c0.1,0,0.7-0.2,1.4-0.5c1.3-0.4,1.5-0.5,1.8-0.7l1.4,3.6c-1.2,0.2-3.7,0.8-5.9,1.6c0,0.6,0,0.6,0,1.7c0,1,0,1.4,0.1,2l-3.7,0.1
		c0.1-0.3,0.1-1.1,0.1-2.4l-0.2,0.1c-1.1,0.5-1.2,0.6-1.6,1c-0.4,0.3-0.6,0.8-0.6,1.2c0,0.9,0.9,1.2,3.1,1.2c2.8,0,5.4-0.4,7.4-1.1
		l0.3,4.1c-0.7,0-0.7,0-2,0.2c-1.8,0.2-3.7,0.3-5.5,0.3c-2.6,0-4.2-0.3-5.5-1.1c-1.1-0.7-1.8-1.9-1.8-3.3c0-1.1,0.3-2,1.1-2.9
		c0.9-1,1.9-1.7,3.3-2.5c0.6-0.3,0.8-0.4,1.7-0.8c-0.2-0.4-0.5-0.6-0.9-0.6c-1.2,0-2.8,0.8-4.4,2.2c-1,0.9-1.6,1.5-2.2,2.3l-2.9-2.9
		c0.7-0.6,1.7-1.5,2.4-2.4c0.5-0.6,1.4-2,1.8-2.5c0.3-0.6,0.3-0.6,0.4-0.7c-0.3,0-0.6,0-0.7,0c-1,0-1,0-2,0c-0.3,0-0.5,0-0.8,0
		c0,0-0.2,0-0.3,0L23,267.5z"/>
	<path fill="#DA2327" d="M33.3,305.5h-3.2c-0.2,0-0.6,0-1,0h-0.5c-0.3,0-0.4,0-0.7,0v-2.6c0.7,0.1,1.1,0.1,2.2,0.1h3.2v-0.7h-3
		c-0.7,0-1.3,0-1.9,0.1v-2.6c0.5,0.1,1.1,0.1,1.9,0.1h3v-0.8h-3.1c-1.2,0-1.6,0-2.2,0.1v-2.7c0.6,0,0.9,0.1,2.2,0.1h0.2
		c-0.1-0.3-0.3-0.6-0.6-1h-0.3c-1.2,0-1.6,0-2.2,0.1v-2.2l-1.9,1.9c-1.4-1.8-2.3-2.7-4.1-4.3l2.6-2.5c1.8,1.4,2.8,2.5,4.2,4.1
		l-0.4,0.3c0.4,0,0.8,0,1.8,0h3.7v-0.8H30c-1,0-1.3,0-1.9,0.1v-2.7c0.7,0.1,1.3,0.1,2.3,0.1h2.9c0-0.6,0-0.9-0.1-1.2h3.7
		c-0.1,0.4-0.1,0.8-0.1,1.2h3c0.9,0,1.6,0,2.3-0.1v2.7c-0.5,0-1.1-0.1-1.9-0.1h-3.5v0.8h4c1.2,0,1.5,0,2.2-0.1v2.7
		c-0.6,0-1-0.1-2.2-0.1h-0.6c-0.1,0.3-0.3,0.7-0.5,1h0.6c1.3,0,1.6,0,2.2-0.1v2.7c-0.6-0.1-0.9-0.1-2.2-0.1h-3.5v0.8h3.1
		c0.8,0,1.4,0,1.9-0.1v2.6c-0.6,0-1.2-0.1-1.9-0.1h-3.1v0.7h3.7c1.1,0,1.5,0,2.2-0.1v2.7c-0.7-0.1-1.2-0.1-2.2-0.1h-3.7v1.1
		c0.7,0,1.4,0,1.7,0c2.4-0.1,3-0.1,5.1-0.3c-0.5,1.4-0.7,2.3-0.9,3.6c-1.9,0.1-5.2,0.1-8.3,0.1c-5.6,0-6.9-0.3-8.6-2.1
		c-1.3,1.1-1.3,1.1-3.1,2.3l-1.5-3.7c0.6-0.2,1.8-0.9,2.8-1.7v-4.3h-1c-0.5,0-0.8,0-1.4,0.1v-3.5c0.6,0.1,1,0.1,1.9,0.1h2.2
		c0.7,0,1.2,0,1.8-0.1c-0.1,0.7-0.1,1.2-0.1,2.6v5.4c0.5,0.7,1,1.1,1.9,1.4c0.7,0.2,2.4,0.3,4,0.3V305.5z M33.4,295.5
		c0.2,0.4,0.3,0.7,0.5,1h2.2c0.2-0.4,0.3-0.7,0.4-1H33.4z"/>
	<path fill="#DA2327" d="M42,320.4c-0.1,0.3-0.2,0.5-0.4,1.1c-0.8,2-1.9,4.1-3.1,5.7c0.6,1.1,1,1.6,1.6,2.1c0.3-0.7,0.4-1.3,0.6-3
		c1,1,1.5,1.4,2.6,2.1c-0.6,3.4-1.5,4.9-2.9,4.9c-1.3,0-2.7-1.1-4.3-3.4c-1.4,1.3-2.6,2.3-4.6,3.4c-0.6-1.2-0.9-1.8-1.7-2.8
		c-0.7,0.2-1.6,0.3-2.4,0.3c-0.2,0-0.5,0-0.8,0c-0.1-1-0.3-1.7-0.5-2.5c-0.5,2.3-1.1,3.9-2.1,5.4c-1.1-1.4-1.7-2-2.8-2.9
		c0.8-1.3,1.2-2.2,1.5-3.8c0.4-2,0.7-5.1,0.7-9.3c0-1.1,0-2.1-0.1-3c0.9,0.1,1.9,0.1,3.1,0.1h6.5c0-1.9-0.1-2.2-0.1-2.7h3.7
		c-0.1,0.4-0.1,1.1-0.1,1.7v1.1h2.3c-0.9-0.6-1.2-0.9-1.8-1.2l2.2-2c1.2,0.7,2,1.3,2.9,2.1l-1.4,1.1c1.2,0,1.6,0,2.3-0.1v3.5
		c-0.8-0.1-1.9-0.1-3-0.1h-3.4c0.1,2,0.3,3.9,0.6,5.4c0.9-1.7,1.3-3,1.5-4.3L42,320.4z M26.7,323.6c-0.1,1.6-0.3,2.7-0.4,3.9
		c0.7,0.1,1,0.1,1.4,0.1c0.6,0,0.7-0.1,0.9-0.5c0.2-0.5,0.3-1.3,0.3-3.6H26.7z M30.8,320.5c0.8,0,1,0,1.5-0.1c0,0.6,0,0.6-0.2,4.2
		c-0.1,2.3-0.3,3.9-0.7,4.8c1.2-0.8,2.3-1.6,3.2-2.5c-0.9-2.6-1.3-4.8-1.6-8.8h-6.2c0,1.3,0,1.6,0,2.4H30.8z"/>
	<path fill="#DA2327" d="M29.4,335.6c-0.3,1.4-0.5,7.6-0.5,11.4c0,2.3,0.1,3,0.5,3.6c0.4,0.7,1.4,1.1,2.7,1.1c2.4,0,4.2-1.4,5.1-3.9
		c0.5-1.2,0.7-2.5,0.9-4.2c1.7,1.3,2.5,1.8,3.9,2.4c-0.9,3.4-1.6,5.1-2.9,6.5c-1.8,2-4.2,3-7.2,3c-2.3,0-4.1-0.6-5.3-1.7
		c-1.3-1.3-1.7-2.7-1.7-6c0-0.6,0-0.6,0.1-5.2c0-2.3,0.1-4.5,0.1-5.4c0-0.7,0-1.1-0.1-1.7L29.4,335.6z"/>
	<path fill="#DA2327" d="M23.2,360.7c1.4,0.3,3.7,0.5,6.6,0.5c0.3,0,0.6,0,1.3,0c0-1.5,0-1.9-0.1-2.5h4c-0.1,0.6-0.1,0.8-0.2,2.4
		c3.1-0.2,5.2-0.4,6.5-0.8l0.1,3.5c-0.7,0-0.8,0-2,0.2c-1.5,0.2-2.8,0.3-4.6,0.4c0,0.6,0,0.6,0,1.4c2.6-0.1,4.3-0.3,5.9-0.7l0.1,3.5
		c-0.5,0-0.5,0-1.5,0.1c-1,0.1-3.2,0.3-4.5,0.3c0,1.1,0,1.1,0.1,2c1.2,0.3,1.9,0.6,3.2,1.2c1.2,0.6,1.4,0.8,3.1,1.9
		c0.3,0.2,0.5,0.3,0.9,0.6l-2.2,3.7c-0.7-0.7-0.7-0.7-1.6-1.5c-1.1-0.9-2.2-1.6-3.3-2c0,1-0.2,1.7-0.6,2.3c-0.8,1.2-2.5,1.8-5,1.8
		c-3.8,0-5.9-1.5-5.9-4.2c0-1.7,1.1-3.1,2.9-3.7c1.1-0.4,2.5-0.6,4.1-0.6c0.3,0,0.4,0,0.7,0c0-0.8,0-1.2,0-1.4c-0.5,0-1.4,0-1.8,0
		c-1.3,0-2.4,0-3.7-0.1c-1,0-1.1-0.1-1.8-0.1l0-3.4c1,0.2,3.3,0.4,5.7,0.4c0.5,0,0.8,0,1.5,0c0-0.2,0-0.2,0-0.3c0,0,0,0,0-0.6
		c0-0.3,0-0.3,0-0.6c-0.5,0-0.8,0-1,0c-1.2,0-1.6,0-4.3-0.1c-0.9,0-0.9,0-1.7-0.1c-0.3,0-0.6,0-0.6,0c-0.1,0-0.2,0-0.4,0L23.2,360.7
		z M29.8,373.8c-1.4,0-2.2,0.4-2.2,1.1c0,0.6,0.6,0.9,1.8,0.9c1.3,0,1.8-0.4,1.8-1.5c0-0.1,0-0.4,0-0.4
		C30.7,373.8,30.4,373.8,29.8,373.8z"/>
	<path fill="#DA2327" d="M22,384.3c0.6,0,0.8,0.1,1.4,0.1c0.6,0,6.8-0.2,8.9-0.2c0-1.5,0-1.8-0.2-2.4h4.1c-0.1,0.8-0.1,1.1-0.1,2.3
		c3.8,0,5.5-0.1,6.4-0.2l0,3.8c-1-0.1-1.5-0.1-4.1-0.1c-1.2,0-1.4,0-2.3,0v2.9c0,0.1,0,0.3,0,0.5c0.7,1.2,0.9,2.3,0.9,3.8
		c0,2.6-1.3,4.8-3.8,6.4c-1.1,0.7-2.4,1.2-4.6,1.9c-0.6-1.6-1.2-2.5-2.2-3.6c2.3-0.3,3.6-0.7,4.7-1.4c0.9-0.5,1.3-1,1.7-1.8
		c-1,0.8-1.7,1.1-3.1,1.1c-2.7,0-4.6-1.7-4.6-4.2c0-2.6,2.2-4.4,5.3-4.4c0.7,0,1.3,0.1,1.8,0.3c0-0.2,0-0.2,0-0.7c0-0.3,0-0.3,0-0.6
		c-4.8,0.1-8.5,0.3-10.3,0.6L22,384.3z M29.2,392.9c0,0.7,0.6,1.2,1.5,1.2c1,0,1.7-0.6,1.7-1.4c0-0.7-0.6-1.2-1.5-1.2
		C29.9,391.6,29.2,392.1,29.2,392.9z"/>
</g>
<path fill="#DA2327" d="M388.4,184.6c0,0-3.3,1.5-4.9-3.1L546.9,52.5c0,0,13.1,5.4,4.1,14L388.4,184.6z"/>
<path fill="#DA2327" d="M368,161.5c0,0-1.8,3.2,2.7,5.1L512.2,14.1c0,0-4.4-13.5-13.6-5.2L368,161.5z"/>
</svg>
