<?xml version="1.0" encoding="utf-8"?>
<!-- Generator: Adobe Illustrator 18.1.1, SVG Export Plug-In . SVG Version: 6.00 Build 0)  -->
<svg version="1.1" id="Layer_1" xmlns="http://www.w3.org/2000/svg" xmlns:xlink="http://www.w3.org/1999/xlink" x="0px" y="0px"
	 viewBox="0 0 53.8 54" enable-background="new 0 0 53.8 54" xml:space="preserve">
<circle fill="#FFFBE9" stroke="#DA2327" stroke-width="4" stroke-miterlimit="10" cx="26.9" cy="27.1" r="24"/>
<g>
	<path fill="#DA2327" d="M21.7,31.7c1.1,1,2.5,1.7,3.8,1.7c1.6,0,2.7-0.6,2.7-1.7c0-1.4-0.7-2.2-4.6-2.2V26c3.1,0,4-0.8,4-2.1
		c0-1.1-0.7-1.7-1.9-1.7c-1.2,0-2.1,0.5-3.2,1.5l-2.5-3c1.8-1.5,3.7-2.4,6-2.4c4.1,0,6.7,1.9,6.7,5.2c0,1.8-1,3.1-3,4v0.1
		c2.1,0.6,3.5,2.1,3.5,4.4c0,3.5-3.3,5.4-7.1,5.4c-3,0-5.2-1-6.6-2.6L21.7,31.7z"/>
</g>
</svg>
