<?xml version="1.0" encoding="utf-8"?>
<!-- Generator: Adobe Illustrator 18.1.1, SVG Export Plug-In . SVG Version: 6.00 Build 0)  -->
<svg version="1.1" id="Layer_1" xmlns="http://www.w3.org/2000/svg" xmlns:xlink="http://www.w3.org/1999/xlink" x="0px" y="0px"
	 viewBox="0 0 479 789" enable-background="new 0 0 479 789" xml:space="preserve">
<path id="Cloud_4_" opacity="0.79" fill="#FFFBE9" stroke="#FFFBE9" stroke-miterlimit="10" d="M113.3,645.7
	c0,27.4,22.2,49.7,49.7,49.7h157.7c27.4,0,49.7-22.2,49.7-49.7c0-24.6-18-44.9-41.6-48.8c0.4-2,0.6-4,0.6-6.1c0-17.7-14.3-32-32-32
	c-9.4,0-17.7,4.1-23.6,10.5c-8.8-23.5-31.5-40.3-58.1-40.3c-34.3,0-62.1,27.8-62.1,62.1c0,2,0.1,3.9,0.3,5.9
	C130.9,601.2,113.3,621.4,113.3,645.7z"/>
<path id="Cloud" fill="#FFFBE9" d="M412.1,102.2c0.1-1.2,0.2-2.4,0.2-3.6c0-21-17.1-38.1-38.1-38.1c-16.3,0-30.2,10.3-35.6,24.7
	c-3.6-3.9-8.7-6.5-14.5-6.5c-10.8,0-19.6,8.8-19.6,19.6c0,1.3,0.1,2.5,0.4,3.7c-14.5,2.4-25.5,14.8-25.5,30
	c0,16.8,13.6,30.5,30.5,30.5h96.7c16.8,0,30.5-13.6,30.5-30.5C437,117.1,426.3,104.8,412.1,102.2z"/>
<path id="Cloud_1_" fill="#FFFBE9" d="M279.8,79c0-0.3,0.1-0.7,0.1-1c0-6-4.9-10.9-10.9-10.9c-4.7,0-8.6,2.9-10.2,7.1
	c-1-1.1-2.5-1.8-4.1-1.8c-3.1,0-5.6,2.5-5.6,5.6c0,0.4,0,0.7,0.1,1.1c-4.1,0.7-7.3,4.2-7.3,8.6c0,4.8,3.9,8.7,8.7,8.7h27.7
	c4.8,0,8.7-3.9,8.7-8.7C286.9,83.2,283.9,79.7,279.8,79z"/>
<path id="Cloud_5_" opacity="0.81" fill="#FFFBE9" stroke="#FFFBE9" stroke-miterlimit="10" d="M897.4,206.1
	c0,35.7,28.9,64.6,64.6,64.6h205c35.7,0,64.6-28.9,64.6-64.6c0-32-23.4-58.4-54.1-63.5c0.5-2.6,0.8-5.2,0.8-7.9
	c0-23-18.6-41.6-41.6-41.6c-12.2,0-23,5.3-30.6,13.7c-11.5-30.6-40.9-52.4-75.5-52.4c-44.6,0-80.7,36.1-80.7,80.7
	c0,2.6,0.1,5.1,0.4,7.6C920.2,148.3,897.4,174.5,897.4,206.1z"/>
<path id="Cloud_2_" fill="#FFFBE9" d="M104.2,407.2c0.1-0.6,0.1-1.3,0.1-1.9c0-11.2-9.1-20.3-20.3-20.3c-8.7,0-16.1,5.5-19,13.2
	c-1.9-2.1-4.6-3.4-7.7-3.4c-5.8,0-10.5,4.7-10.5,10.5c0,0.7,0.1,1.3,0.2,2c-7.7,1.3-13.6,7.9-13.6,16c0,9,7.3,16.2,16.2,16.2h51.6
	c9,0,16.2-7.3,16.2-16.2C117.5,415.2,111.8,408.6,104.2,407.2z"/>
<path id="Cloud_3_" fill="#FFFBE9" d="M128.1,423.3c0-0.3,0-0.6,0-1c0-5.6-4.5-10.1-10.1-10.1c-4.3,0-8,2.7-9.5,6.6
	c-1-1-2.3-1.7-3.9-1.7c-2.9,0-5.2,2.3-5.2,5.2c0,0.3,0,0.7,0.1,1c-3.9,0.6-6.8,4-6.8,8c0,4.5,3.6,8.1,8.1,8.1h25.8
	c4.5,0,8.1-3.6,8.1-8.1C134.7,427.3,131.8,424,128.1,423.3z"/>
</svg>
