<?xml version="1.0" encoding="utf-8"?>
<!-- Generator: Adobe Illustrator 18.1.1, SVG Export Plug-In . SVG Version: 6.00 Build 0)  -->
<svg version="1.1" id="Layer_1" xmlns="http://www.w3.org/2000/svg" xmlns:xlink="http://www.w3.org/1999/xlink" x="0px" y="0px"
	 viewBox="0 0 156.6 20.9" enable-background="new 0 0 156.6 20.9" xml:space="preserve">
<g id="Page_1_9_">
	<g id="Artboard_1_5_">
		<g id="Layer_1_9_" transform="translate(1.000000, 0.000000)">
			<g id="Page_1_10_">
				<g id="logo_5_">
					<g id="Layer_1_10_">
						<path id="Shape_55_" fill="#DA2327" d="M34,3.3c1.8,0,3.4,0.9,4.4,1.9l-2.1,2.4c-0.7-0.6-1.3-1-2.3-1c-1.7,0-3.2,1.6-3.2,4.2
							c0,2.7,1.3,4.2,3.1,4.2c1.1,0,1.9-0.5,2.5-1.2l2.1,2.3c-1.2,1.4-2.9,2.1-4.7,2.1c-3.8,0-7-2.5-7-7.4C26.8,6.1,30.2,3.3,34,3.3
							L34,3.3L34,3.3z"/>
						<path id="Shape_54_" fill="#DA2327" d="M41.7,3.6h3.8V9h4.3V3.6h3.8v14.5h-3.8v-5.8h-4.3v5.8h-3.8L41.7,3.6L41.7,3.6z"/>
						<path id="Shape_53_" fill="#DA2327" d="M57.6,10.8c0-4.8,2.7-7.5,6.8-7.5c4,0,6.8,2.7,6.8,7.5c0,4.8-2.7,7.6-6.8,7.6
							C60.3,18.4,57.6,15.6,57.6,10.8L57.6,10.8L57.6,10.8z M67.1,10.8c0-2.6-1.1-4.2-2.8-4.2c-1.7,0-2.8,1.5-2.8,4.2
							s1.1,4.3,2.8,4.3C66.1,15.1,67.1,13.4,67.1,10.8L67.1,10.8L67.1,10.8z"/>
						<path id="Shape_52_" fill="#DA2327" d="M74.9,3.6h5.6c3.1,0,5.8,1.2,5.8,4.8c0,3.6-2.8,5.1-5.8,5.1h-1.8v4.6h-3.8V3.6
							L74.9,3.6z M80.3,10.5c1.5,0,2.2-0.8,2.2-2.1c0-1.3-0.8-1.8-2.2-1.8h-1.6v3.8H80.3L80.3,10.5L80.3,10.5z"/>
						<path id="Shape_51_" fill="#DA2327" d="M91.1,13.7c1,0.8,2.3,1.4,3.4,1.4c1.2,0,1.7-0.4,1.7-1c0-0.7-0.7-0.9-2-1.4l-1.8-0.8
							c-1.6-0.6-2.9-1.9-2.9-4c0-2.5,2.2-4.5,5.4-4.5c1.7,0,3.5,0.6,4.8,1.9l-1.9,2.4c-1-0.7-1.8-1-2.9-1c-0.9,0-1.5,0.3-1.5,1
							c0,0.7,0.8,0.9,2.1,1.5l1.8,0.7c1.8,0.7,2.8,2,2.8,4c0,2.5-2.1,4.6-5.7,4.6c-1.8,0-3.9-0.7-5.5-2.1L91.1,13.7L91.1,13.7z"/>
						<path id="Shape_50_" fill="#DA2327" d="M106.5,6.8h-3.8V3.6h11.5v3.2h-3.8v11.3h-3.8V6.8L106.5,6.8z"/>
						<path id="Shape_49_" fill="#DA2327" d="M117.4,3.6h3.8v14.5h-3.8V3.6L117.4,3.6z"/>
						<path id="Shape_48_" fill="#DA2327" d="M132.1,3.3c1.8,0,3.4,0.9,4.4,1.9l-2.1,2.4c-0.7-0.6-1.3-1-2.3-1
							c-1.7,0-3.2,1.6-3.2,4.2c0,2.7,1.3,4.2,3.1,4.2c1.1,0,1.9-0.5,2.5-1.2l2.1,2.3c-1.2,1.4-2.9,2.1-4.7,2.1c-3.8,0-7-2.5-7-7.4
							C125,6.1,128.3,3.3,132.1,3.3L132.1,3.3L132.1,3.3z"/>
						<path id="Shape_47_" fill="#DA2327" d="M139.9,3.6h3.8V9h0.1l3.7-5.4h4.2l-4.3,5.9l5.2,8.6h-4.2l-3.2-5.6l-1.4,2v3.6h-3.8
							L139.9,3.6L139.9,3.6L139.9,3.6z"/>
						<path id="Shape_46_" fill="#DA2327" d="M21.3,3.6h-3.8l-6.5,14.5h3.8L21.3,3.6L21.3,3.6z"/>
						<path id="Shape_45_" fill="#DA2327" d="M13.1,3.6H9.3L2.7,18.1h3.8L13.1,3.6L13.1,3.6z"/>
					</g>
				</g>
			</g>
		</g>
	</g>
</g>
</svg>
