<?xml version="1.0" encoding="UTF-8" standalone="no"?>
<svg width="50px" height="25px" viewBox="0 0 50 25" version="1.1" xmlns="http://www.w3.org/2000/svg" xmlns:xlink="http://www.w3.org/1999/xlink">
    <!-- Generator: Sketch 3.8.3 (29802) - http://www.bohemiancoding.com/sketch -->
    <title>logo-wijs</title>
    <desc>Created with Sketch.</desc>
    <defs></defs>
    <g id="Page-1" stroke="none" stroke-width="1" fill="none" fill-rule="evenodd">
        <g id="logo-wijs" fill="#DA2327">
            <path d="M36.3857118,4.46560453 C33.5082136,8.34397179 30.8809325,12.410002 27.0025653,9.53250369 C22.0607747,5.65413643 20.6845799,8.21886316 19.1207221,10.0329382 C17.5568644,11.8470132 16.5559954,11.4716873 10.9886618,8.15630885 C1.48040655,2.33875797 -0.959211561,8.90696058 2.48127552,13.6610882 C4.7332307,16.6636951 8.04860916,21.5429313 11.8644221,21.5429313 C16.8687669,21.5429313 17.9321902,10.595927 24.4378385,15.7879347 C35.009517,24.1702124 37.6993524,11.0338071 39.4508731,6.34223385 C40.451742,3.33962694 38.5125584,1.58810624 36.3857118,4.46560453 Z M48.2710309,15.6002718 C48.5838024,17.6020097 46.894836,19.5411934 44.5803265,19.9165192 C42.2032627,20.2918451 40.0138619,18.9782046 39.7010903,16.9764666 C39.3883188,14.9747287 41.0772851,13.0355451 43.3917946,12.6602192 C45.8314127,12.2848934 47.9582593,13.5985339 48.2710309,15.6002718 Z" id="Combined-Shape"></path>
        </g>
    </g>
</svg>