<?xml version="1.0" encoding="UTF-8" standalone="no"?>
<svg width="152px" height="17px" viewBox="0 0 152 17" version="1.1" xmlns="http://www.w3.org/2000/svg" xmlns:xlink="http://www.w3.org/1999/xlink">
    <!-- Generator: Sketch 3.8.3 (29802) - http://www.bohemiancoding.com/sketch -->
    <title>logo</title>
    <desc>Created with Sketch.</desc>
    <defs></defs>
    <g id="Page-1" stroke="none" stroke-width="1" fill="none" fill-rule="evenodd">
        <g id="logo" fill="#DA2327">
            <path d="M32.3208806,1 C34.1220814,1 35.7231488,1.88815789 36.7238159,2.875 L34.6224149,5.24342105 C33.921948,4.65131579 33.3215477,4.25657895 32.3208806,4.25657895 C30.6197465,4.25657895 29.1187458,5.83552632 29.1187458,8.40131579 C29.1187458,11.0657895 30.4196131,12.5460526 32.2208139,12.5460526 C33.3215477,12.5460526 34.1220814,12.0526316 34.7224817,11.3618421 L36.8238826,13.6315789 C35.6230821,15.0131579 33.921948,15.7039474 32.1207472,15.7039474 C28.3182121,15.7039474 25.1160774,13.2368421 25.1160774,8.40131579 C25.1160774,3.76315789 28.5183456,1 32.3208806,1 Z M40.0260173,1.29605263 L43.8285524,1.29605263 L43.8285524,6.625 L48.1314209,6.625 L48.1314209,1.29605263 L51.933956,1.29605263 L51.933956,15.6052632 L48.1314209,15.6052632 L48.1314209,9.88157895 L43.8285524,9.88157895 L43.8285524,15.6052632 L40.0260173,15.6052632 L40.0260173,1.29605263 Z M55.9366244,8.40131579 C55.9366244,3.66447368 58.6384256,1 62.7411608,1 C66.7438292,1 69.5456971,3.66447368 69.5456971,8.40131579 C69.5456971,13.1381579 66.8438959,15.9013158 62.7411608,15.9013158 C58.6384256,15.9013158 55.9366244,13.1381579 55.9366244,8.40131579 Z M65.442962,8.40131579 C65.442962,5.83552632 64.3422282,4.25657895 62.6410941,4.25657895 C60.93996,4.25657895 59.8392262,5.73684211 59.8392262,8.40131579 C59.8392262,11.0657895 60.93996,12.6447368 62.6410941,12.6447368 C64.4422949,12.6447368 65.442962,10.9671053 65.442962,8.40131579 Z M73.2481654,1.29605263 L78.8519013,1.29605263 C81.9539693,1.29605263 84.6557705,2.48026316 84.6557705,6.03289474 C84.6557705,9.58552632 81.8539026,11.0657895 78.8519013,11.0657895 L77.0507005,11.0657895 L77.0507005,15.6052632 L73.2481654,15.6052632 L73.2481654,1.29605263 Z M78.6517678,8.10526316 C80.1527685,8.10526316 80.8532355,7.31578947 80.8532355,6.03289474 C80.8532355,4.75 80.0527018,4.25657895 78.6517678,4.25657895 L77.0507005,4.25657895 L77.0507005,8.00657895 L78.6517678,8.00657895 L78.6517678,8.10526316 Z M89.4589726,11.2631579 C90.4596398,12.0526316 91.760507,12.6447368 92.8612408,12.6447368 C94.0620414,12.6447368 94.5623749,12.25 94.5623749,11.6578947 C94.5623749,10.9671053 93.8619079,10.7697368 92.5610407,10.2763158 L90.7598399,9.48684211 C89.1587725,8.89473684 87.8579053,7.61184211 87.8579053,5.53947368 C87.8579053,3.07236842 90.0593729,1.09868421 93.2615077,1.09868421 C94.9626418,1.09868421 96.7638426,1.69078947 98.0647098,2.97368421 L96.1634423,5.34210526 C95.1627752,4.65131579 94.3622415,4.35526316 93.2615077,4.35526316 C92.3609073,4.35526316 91.760507,4.65131579 91.760507,5.34210526 C91.760507,6.03289474 92.5610407,6.23026316 93.8619079,6.82236842 L95.6631087,7.51315789 C97.4643095,8.20394737 98.4649767,9.48684211 98.4649767,11.4605263 C98.4649767,13.9276316 96.3635757,16 92.7611741,16 C90.9599733,16 88.8585724,15.3092105 87.257505,13.9276316 L89.4589726,11.2631579 Z M104.869246,4.45394737 L101.066711,4.45394737 L101.066711,1.29605263 L112.574383,1.29605263 L112.574383,4.45394737 L108.771848,4.45394737 L108.771848,15.6052632 L104.969313,15.6052632 L104.969313,4.45394737 L104.869246,4.45394737 Z M115.776518,1.29605263 L119.579053,1.29605263 L119.579053,15.6052632 L115.776518,15.6052632 L115.776518,1.29605263 Z M130.486324,1 C132.287525,1 133.888592,1.88815789 134.88926,2.875 L132.787859,5.24342105 C132.087392,4.65131579 131.486991,4.25657895 130.486324,4.25657895 C128.78519,4.25657895 127.284189,5.83552632 127.284189,8.40131579 C127.284189,11.0657895 128.585057,12.5460526 130.386258,12.5460526 C131.486991,12.5460526 132.287525,12.0526316 132.887925,11.3618421 L134.989326,13.6315789 C133.788526,15.0131579 132.087392,15.7039474 130.286191,15.7039474 C126.483656,15.7039474 123.281521,13.2368421 123.281521,8.40131579 C123.381588,3.76315789 126.683789,1 130.486324,1 Z M138.291528,1.29605263 L142.094063,1.29605263 L142.094063,6.625 L142.194129,6.625 L145.896598,1.29605263 L150.0994,1.29605263 L145.796531,7.11842105 L151,15.6052632 L146.797198,15.6052632 L143.595063,10.0789474 L142.194129,12.0526316 L142.194129,15.6052632 L138.391594,15.6052632 L138.291528,1.29605263 Z M19.6124083,1.29605263 L15.8098732,1.29605263 L9.30553702,15.6052632 L13.108072,15.6052632 L19.6124083,1.29605263 Z M11.406938,1.29605263 L7.60440294,1.29605263 L1,15.6052632 L4.80253502,15.6052632 L11.406938,1.29605263 Z" id="Combined-Shape"></path>
        </g>
    </g>
</svg>