<?xml version="1.0" encoding="UTF-8" standalone="no"?>
<svg width="80px" height="80px" viewBox="0 0 80 80" version="1.1" xmlns="http://www.w3.org/2000/svg" xmlns:xlink="http://www.w3.org/1999/xlink">
    <!-- Generator: Sketch 3.8.3 (29802) - http://www.bohemiancoding.com/sketch -->
    <title>simplicity</title>
    <desc>Created with Sketch.</desc>
    <defs></defs>
    <g id="Page-1" stroke="none" stroke-width="1" fill="none" fill-rule="evenodd">
        <g id="simplicity">
            <g id="Group" transform="translate(0.000000, 11.000000)">
                <polygon id="Shape" fill="#FEF5CC" points="3.02204297 13.5 14.5058063 2.4 27.097652 13 40.0924367 2 52.3820781 12.6 65.3768629 2 77.7672391 14.2"></polygon>
                <path d="M76.0547481,19 L3.92865586,19 C2.61910391,19 1.00734766,18.7 1.00734766,15.9 L1.00734766,15.9 C1.00734766,13.1 2.01469531,11 3.32424727,11 L76.1554828,11 C77.4650348,11 78.4723824,13.1 78.4723824,15.9 L78.4723824,15.9 C78.3716477,18.7 77.3643,19 76.0547481,19 L76.0547481,19 Z" id="Shape" fill="#FEF5CC"></path>
                <path d="M77.3391163,15.8 C76.7347077,15.8 76.2310339,15.6 75.7273601,15.2 L65.2509445,4.7 C65.1502097,4.6 64.9487402,4.5 64.8480054,4.5 C64.7472706,4.5 64.5458011,4.5 64.4450663,4.7 L55.8826112,13.2 C53.9686507,15.1 50.7451382,15.1 48.8311777,13.2 L40.2687226,4.7 C40.1679878,4.6 39.9665183,4.5 39.8657835,4.5 C39.7650487,4.5 39.5635792,4.5 39.4628444,4.7 L30.9003894,13.2 C29.9937765,14.1 28.6842245,14.6 27.3746726,14.6 C26.0651206,14.6 24.7555687,14.1 23.8489558,13.2 L15.2865007,4.7 C15.1857659,4.6 14.9842964,4.5 14.8835616,4.5 C14.7828269,4.5 14.5813573,4.5 14.4806226,4.7 L3.8027374,15.1 C2.89612451,16 1.48583779,16 0.679959668,15.1 C-0.226653223,14.2 -0.226653223,12.8 0.679959668,12 L11.2571101,1.5 C12.163723,0.6 13.4732749,0 14.7828269,0 C16.0923788,0 17.4019308,0.5 18.3085437,1.5 L26.8709987,10 C26.9717335,10.1 27.173203,10.2 27.2739378,10.2 C27.3746726,10.2 27.5761421,10.2 27.6768769,10 L36.2393319,1.5 C37.1459448,0.6 38.4554968,0 39.7650487,0 C41.0746007,0 42.3841527,0.5 43.2907655,1.5 L51.8532206,10 C52.0546902,10.2 52.4576292,10.2 52.6590987,10 L61.2215538,1.5 C62.1281667,0.6 63.4377187,0 64.7472706,0 C66.0568226,0 67.3663745,0.5 68.2729874,1.5 L78.8501378,12 C79.7567507,12.9 79.7567507,14.3 78.8501378,15.1 C78.4471988,15.6 77.9435249,15.8 77.3391163,15.8 L77.3391163,15.8 Z" id="Shape" fill="#231F20"></path>
                <path d="M28.2,43.8 L52.8,43.8" id="Shape" stroke="#221F1F" stroke-width="4" transform="translate(40.500000, 43.800000) rotate(90.000000) translate(-40.500000, -43.800000) "></path>
                <polyline id="Path-66" stroke="#231F1F" stroke-width="4" transform="translate(40.547119, 51.791385) rotate(90.000000) translate(-40.547119, -51.791385) " points="36.2557339 43.3385044 44.8385044 51.9212748 36.2557339 60.2442661"></polyline>
            </g>
        </g>
    </g>
</svg>