<?xml version="1.0" encoding="UTF-8" standalone="no"?>
<svg width="24px" height="124px" viewBox="0 0 24 124" version="1.1" xmlns="http://www.w3.org/2000/svg" xmlns:xlink="http://www.w3.org/1999/xlink">
    <!-- Generator: Sketch 3.8.3 (29802) - http://www.bohemiancoding.com/sketch -->
    <title>twitter</title>
    <desc>Created with Sketch.</desc>
    <defs></defs>
    <g id="Page-1" stroke="none" stroke-width="1" fill="none" fill-rule="evenodd">
        <g id="twitter" fill="#DA2327">
            <path d="M21.5027249,6.08653955 C20.8017453,6.40078031 20.0521801,6.6102695 19.2679108,6.70104721 C20.0730025,6.2192179 20.6906994,5.45108157 20.9821923,4.53630701 C20.2256932,4.98321913 19.3928383,5.31141979 18.5044709,5.48599876 C17.7965435,4.72484588 16.7832416,4.25 15.6658415,4.25 C13.5143101,4.25 11.7722654,6.00274527 11.7722654,8.16748548 C11.7722654,8.4747428 11.8069694,8.77501668 11.8763705,9.06131671 C8.63519873,8.89372815 5.7688082,7.33650519 3.84631364,4.96925226 C3.51317307,5.54884971 3.31884165,6.2192179 3.31884165,6.93847015 C3.31884165,8.30016382 4.00594312,9.49426894 5.0539456,10.1995543 C4.41542698,10.178604 3.81855181,10.004032 3.29108051,9.71074156 L3.29108051,9.75962563 C3.29108051,11.6590091 4.63058012,13.2371796 6.41426623,13.6002975 C6.08806716,13.6910773 5.74104637,13.7399586 5.38708547,13.7399586 C5.13723039,13.7399586 4.89431612,13.7120269 4.65140115,13.6701284 C5.1441705,15.2273478 6.58777663,16.3586006 8.28817863,16.3935157 C6.95561844,17.4409728 5.27603885,18.0694466 3.45070999,18.0694466 C3.13839128,18.0694466 2.82607264,18.0484977 2.52069445,18.0135826 C4.24191728,19.1238865 6.28933938,19.7733096 8.48945016,19.7733096 C15.6519599,19.7733096 19.5663515,13.8028053 19.5663515,8.62837146 C19.5663515,8.46077592 19.5594107,8.28619694 19.5524699,8.11860839 C20.3228575,7.55996125 20.9821923,6.86864275 21.5027249,6.08653955 L21.5027249,6.08653955 Z" id="Fill-1"></path>
            <path d="M21.5027249,106.08654 C20.8017453,106.40078 20.0521801,106.610269 19.2679108,106.701047 C20.0730025,106.219218 20.6906994,105.451082 20.9821923,104.536307 C20.2256932,104.983219 19.3928383,105.31142 18.5044709,105.485999 C17.7965435,104.724846 16.7832416,104.25 15.6658415,104.25 C13.5143101,104.25 11.7722654,106.002745 11.7722654,108.167485 C11.7722654,108.474743 11.8069694,108.775017 11.8763705,109.061317 C8.63519873,108.893728 5.7688082,107.336505 3.84631364,104.969252 C3.51317307,105.54885 3.31884165,106.219218 3.31884165,106.93847 C3.31884165,108.300164 4.00594312,109.494269 5.0539456,110.199554 C4.41542698,110.178604 3.81855181,110.004032 3.29108051,109.710742 L3.29108051,109.759626 C3.29108051,111.659009 4.63058012,113.23718 6.41426623,113.600297 C6.08806716,113.691077 5.74104637,113.739959 5.38708547,113.739959 C5.13723039,113.739959 4.89431612,113.712027 4.65140115,113.670128 C5.1441705,115.227348 6.58777663,116.358601 8.28817863,116.393516 C6.95561844,117.440973 5.27603885,118.069447 3.45070999,118.069447 C3.13839128,118.069447 2.82607264,118.048498 2.52069445,118.013583 C4.24191728,119.123886 6.28933938,119.77331 8.48945016,119.77331 C15.6519599,119.77331 19.5663515,113.802805 19.5663515,108.628371 C19.5663515,108.460776 19.5594107,108.286197 19.5524699,108.118608 C20.3228575,107.559961 20.9821923,106.868643 21.5027249,106.08654 L21.5027249,106.08654 Z" id="Fill-1"></path>
        </g>
    </g>
</svg>