<?xml version="1.0" encoding="utf-8"?>
<!-- Generator: Adobe Illustrator 18.1.1, SVG Export Plug-In . SVG Version: 6.00 Build 0)  -->
<svg version="1.1" xmlns="http://www.w3.org/2000/svg" xmlns:xlink="http://www.w3.org/1999/xlink" x="0px" y="0px"
	 viewBox="0 0 80 80" enable-background="new 0 0 80 80" xml:space="preserve">
<g id="Layer_1" display="none">
	<path display="inline" fill="#FFFFFF" d="M63.6,28.5c-2.5-2.5-5.4-1.3-7.6,0.7c-1.4,1.3-4.1,3.6-7.1,6c0.7-2.9,1.3-5.4,1.5-6.2
		c0.7-2.3,0.1-4.3-3.4-4c-6,0.5-3.5,9.8-12,1.1c-6.6-7-8.8,10.6-14.7,6.2c-3.6-2.8-4.6-1-5.8,0.3s-1.9,1.1-5.9-1.4
		c-7-4.2-8.8,0.6-6.2,4.1c1.7,2.2,4.1,5.8,6.8,5.8c3.7,0,4.5-8,9.2-4.2c8.6,6.9,8.1-7.3,12-7.3c5.2,0,5,9.5,13,4.7
		c-0.1,0.6-0.7,2.7-1.5,5.3c-20,10.9-1.9,25.9,4.3,6.7c0.4-1.4,1.2-4.7,2-8c3.1-1.9,6.5-4,8.4-5.5c1.7-1.3,3.5-0.3,4,0.1
		c5.1,4.2,0.9,3.4,0.2,6.1c-1,3.4,2.7,7.6,7.5,2.2C70.7,38.5,68.6,33.3,63.6,28.5z M39.5,47.8c-1.4,2.1-2.6,1.9-3,1.8
		c-1.9-0.5-1-3.6,4.4-6.6c0.1-0.1,0.3,0.1,0.3,0.3C40.8,44.8,40.1,46.9,39.5,47.8z"/>
	
		<ellipse transform="matrix(-0.1567 -0.9876 0.9876 -0.1567 50.7655 117.6337)" display="inline" fill="#FFFFFF" cx="75.6" cy="37.1" rx="2.7" ry="3.2"/>
</g>
<g id="Layer_2">
	<path fill="#DA2327" d="M58.6,23.8c-4.6,6.2-8.8,12.7-15,8.1c-7.9-6.2-10.1-2.1-12.6,0.8c-2.5,2.9-4.1,2.3-13-3
		C2.8,20.4-1.1,30.9,4.4,38.5c3.6,4.8,8.9,12.6,15,12.6c8,0,9.7-17.5,20.1-9.2c16.9,13.4,21.2-7.6,24-15.1
		C65.1,22,62,19.2,58.6,23.8"/>
	<path fill="#DA2327" d="M77.6,41.6c0.5,3.2-2.2,6.3-5.9,6.9c-3.8,0.6-7.3-1.5-7.8-4.7c-0.5-3.2,2.2-6.3,5.9-6.9
		C73.7,36.3,77.1,38.4,77.6,41.6"/>
</g>
</svg>
